<svg width="1134" height="320" viewBox="0 0 1134 320" fill="none" xmlns="http://www.w3.org/2000/svg">
<path d="M363.054 212V190.182H371.044C372.593 190.182 373.875 190.437 374.89 190.949C375.906 191.453 376.666 192.138 377.17 193.005C377.674 193.864 377.926 194.834 377.926 195.913C377.926 196.822 377.76 197.589 377.426 198.214C377.092 198.832 376.644 199.33 376.083 199.706C375.529 200.075 374.919 200.345 374.251 200.516V200.729C374.975 200.764 375.682 200.999 376.371 201.432C377.067 201.858 377.642 202.465 378.097 203.254C378.551 204.042 378.779 205.001 378.779 206.13C378.779 207.245 378.516 208.246 377.99 209.134C377.472 210.015 376.669 210.714 375.583 211.233C374.496 211.744 373.108 212 371.417 212H363.054ZM366.346 209.177H371.098C372.674 209.177 373.804 208.871 374.485 208.261C375.167 207.65 375.508 206.886 375.508 205.97C375.508 205.281 375.334 204.649 374.986 204.074C374.638 203.499 374.141 203.04 373.495 202.7C372.855 202.359 372.095 202.188 371.215 202.188H366.346V209.177ZM366.346 199.621H370.757C371.495 199.621 372.159 199.479 372.749 199.195C373.345 198.911 373.818 198.513 374.166 198.001C374.521 197.483 374.698 196.872 374.698 196.169C374.698 195.267 374.382 194.511 373.75 193.9C373.118 193.289 372.149 192.984 370.842 192.984H366.346V199.621ZM392.793 205.214V195.636H395.989V212H392.857V209.166H392.687C392.31 210.04 391.707 210.768 390.876 211.35C390.052 211.925 389.025 212.213 387.797 212.213C386.746 212.213 385.815 211.982 385.006 211.521C384.203 211.052 383.571 210.359 383.109 209.443C382.655 208.527 382.427 207.394 382.427 206.045V195.636H385.613V205.661C385.613 206.776 385.922 207.664 386.54 208.325C387.158 208.985 387.96 209.315 388.947 209.315C389.544 209.315 390.137 209.166 390.726 208.868C391.323 208.57 391.817 208.119 392.207 207.515C392.605 206.911 392.8 206.144 392.793 205.214ZM400.269 212V195.636H403.455V212H400.269ZM401.878 193.112C401.324 193.112 400.848 192.927 400.45 192.558C400.06 192.181 399.864 191.734 399.864 191.215C399.864 190.69 400.06 190.242 400.45 189.873C400.848 189.496 401.324 189.308 401.878 189.308C402.432 189.308 402.904 189.496 403.295 189.873C403.693 190.242 403.891 190.69 403.891 191.215C403.891 191.734 403.693 192.181 403.295 192.558C402.904 192.927 402.432 193.112 401.878 193.112ZM410.925 190.182V212H407.74V190.182H410.925ZM421.336 212.32C420.015 212.32 418.836 211.982 417.799 211.308C416.77 210.626 415.96 209.656 415.37 208.399C414.788 207.135 414.497 205.619 414.497 203.85C414.497 202.082 414.792 200.569 415.381 199.312C415.978 198.055 416.794 197.092 417.831 196.425C418.868 195.757 420.044 195.423 421.358 195.423C422.373 195.423 423.19 195.594 423.808 195.935C424.433 196.268 424.916 196.659 425.257 197.107C425.605 197.554 425.875 197.948 426.066 198.289H426.258V190.182H429.444V212H426.333V209.454H426.066C425.875 209.802 425.598 210.2 425.236 210.647C424.88 211.094 424.39 211.485 423.765 211.819C423.14 212.153 422.331 212.32 421.336 212.32ZM422.04 209.603C422.956 209.603 423.73 209.362 424.362 208.879C425.001 208.388 425.484 207.71 425.811 206.844C426.145 205.977 426.312 204.969 426.312 203.818C426.312 202.682 426.148 201.687 425.821 200.835C425.495 199.983 425.015 199.319 424.383 198.843C423.751 198.367 422.97 198.129 422.04 198.129C421.081 198.129 420.282 198.378 419.642 198.875C419.003 199.372 418.52 200.05 418.194 200.91C417.874 201.769 417.714 202.739 417.714 203.818C417.714 204.912 417.878 205.896 418.204 206.769C418.531 207.643 419.014 208.335 419.653 208.847C420.299 209.351 421.095 209.603 422.04 209.603ZM443.943 218.136C443.467 218.136 443.034 218.097 442.643 218.019C442.253 217.948 441.961 217.87 441.77 217.785L442.537 215.175C443.119 215.331 443.638 215.398 444.092 215.377C444.547 215.356 444.948 215.185 445.296 214.866C445.651 214.546 445.964 214.024 446.233 213.3L446.628 212.213L440.64 195.636H444.049L448.194 208.335H448.364L452.508 195.636H455.928L449.184 214.184C448.872 215.036 448.474 215.757 447.991 216.347C447.508 216.943 446.933 217.391 446.265 217.689C445.598 217.987 444.824 218.136 443.943 218.136ZM465.258 212.33C463.724 212.33 462.385 211.979 461.241 211.276C460.098 210.572 459.21 209.589 458.578 208.325C457.946 207.06 457.63 205.583 457.63 203.893C457.63 202.195 457.946 200.711 458.578 199.44C459.21 198.168 460.098 197.181 461.241 196.478C462.385 195.775 463.724 195.423 465.258 195.423C466.792 195.423 468.131 195.775 469.274 196.478C470.418 197.181 471.305 198.168 471.937 199.44C472.57 200.711 472.886 202.195 472.886 203.893C472.886 205.583 472.57 207.06 471.937 208.325C471.305 209.589 470.418 210.572 469.274 211.276C468.131 211.979 466.792 212.33 465.258 212.33ZM465.268 209.656C466.263 209.656 467.087 209.393 467.74 208.868C468.393 208.342 468.876 207.643 469.189 206.769C469.508 205.896 469.668 204.933 469.668 203.882C469.668 202.838 469.508 201.879 469.189 201.006C468.876 200.125 468.393 199.418 467.74 198.886C467.087 198.353 466.263 198.087 465.268 198.087C464.267 198.087 463.436 198.353 462.775 198.886C462.122 199.418 461.636 200.125 461.316 201.006C461.003 201.879 460.847 202.838 460.847 203.882C460.847 204.933 461.003 205.896 461.316 206.769C461.636 207.643 462.122 208.342 462.775 208.868C463.436 209.393 464.267 209.656 465.268 209.656ZM486.807 205.214V195.636H490.003V212H486.871V209.166H486.7C486.324 210.04 485.72 210.768 484.889 211.35C484.065 211.925 483.039 212.213 481.81 212.213C480.759 212.213 479.829 211.982 479.019 211.521C478.217 211.052 477.585 210.359 477.123 209.443C476.668 208.527 476.441 207.394 476.441 206.045V195.636H479.627V205.661C479.627 206.776 479.935 207.664 480.553 208.325C481.171 208.985 481.974 209.315 482.961 209.315C483.558 209.315 484.151 209.166 484.74 208.868C485.337 208.57 485.83 208.119 486.221 207.515C486.619 206.911 486.814 206.144 486.807 205.214ZM494.283 212V195.636H497.362V198.236H497.532C497.831 197.355 498.356 196.663 499.109 196.158C499.869 195.647 500.728 195.391 501.687 195.391C501.886 195.391 502.12 195.398 502.39 195.413C502.667 195.427 502.884 195.445 503.04 195.466V198.513C502.912 198.477 502.685 198.438 502.358 198.396C502.032 198.346 501.705 198.321 501.378 198.321C500.625 198.321 499.954 198.481 499.365 198.8C498.782 199.113 498.321 199.55 497.98 200.111C497.639 200.665 497.468 201.297 497.468 202.007V212H494.283ZM513.736 218.136V195.636H516.847V198.289H517.113C517.298 197.948 517.564 197.554 517.912 197.107C518.26 196.659 518.743 196.268 519.361 195.935C519.979 195.594 520.796 195.423 521.811 195.423C523.132 195.423 524.311 195.757 525.348 196.425C526.385 197.092 527.198 198.055 527.788 199.312C528.385 200.569 528.683 202.082 528.683 203.85C528.683 205.619 528.388 207.135 527.799 208.399C527.209 209.656 526.399 210.626 525.37 211.308C524.34 211.982 523.164 212.32 521.843 212.32C520.849 212.32 520.036 212.153 519.404 211.819C518.779 211.485 518.289 211.094 517.934 210.647C517.578 210.2 517.305 209.802 517.113 209.454H516.921V218.136H513.736ZM516.858 203.818C516.858 204.969 517.024 205.977 517.358 206.844C517.692 207.71 518.175 208.388 518.807 208.879C519.439 209.362 520.213 209.603 521.13 209.603C522.081 209.603 522.877 209.351 523.516 208.847C524.155 208.335 524.638 207.643 524.965 206.769C525.299 205.896 525.465 204.912 525.465 203.818C525.465 202.739 525.302 201.769 524.975 200.91C524.656 200.05 524.173 199.372 523.527 198.875C522.887 198.378 522.088 198.129 521.13 198.129C520.206 198.129 519.425 198.367 518.786 198.843C518.154 199.319 517.674 199.983 517.348 200.835C517.021 201.687 516.858 202.682 516.858 203.818ZM532.252 212V195.636H535.331V198.236H535.501C535.799 197.355 536.325 196.663 537.078 196.158C537.838 195.647 538.697 195.391 539.656 195.391C539.855 195.391 540.089 195.398 540.359 195.413C540.636 195.427 540.853 195.445 541.009 195.466V198.513C540.881 198.477 540.654 198.438 540.327 198.396C540 198.346 539.674 198.321 539.347 198.321C538.594 198.321 537.923 198.481 537.333 198.8C536.751 199.113 536.289 199.55 535.948 200.111C535.608 200.665 535.437 201.297 535.437 202.007V212H532.252ZM550.072 212.33C548.538 212.33 547.199 211.979 546.056 211.276C544.912 210.572 544.025 209.589 543.392 208.325C542.76 207.06 542.444 205.583 542.444 203.893C542.444 202.195 542.76 200.711 543.392 199.44C544.025 198.168 544.912 197.181 546.056 196.478C547.199 195.775 548.538 195.423 550.072 195.423C551.606 195.423 552.945 195.775 554.089 196.478C555.232 197.181 556.12 198.168 556.752 199.44C557.384 200.711 557.7 202.195 557.7 203.893C557.7 205.583 557.384 207.06 556.752 208.325C556.12 209.589 555.232 210.572 554.089 211.276C552.945 211.979 551.606 212.33 550.072 212.33ZM550.083 209.656C551.077 209.656 551.901 209.393 552.554 208.868C553.208 208.342 553.691 207.643 554.003 206.769C554.323 205.896 554.483 204.933 554.483 203.882C554.483 202.838 554.323 201.879 554.003 201.006C553.691 200.125 553.208 199.418 552.554 198.886C551.901 198.353 551.077 198.087 550.083 198.087C549.081 198.087 548.25 198.353 547.59 198.886C546.937 199.418 546.45 200.125 546.13 201.006C545.818 201.879 545.662 202.838 545.662 203.882C545.662 204.933 545.818 205.896 546.13 206.769C546.45 207.643 546.937 208.342 547.59 208.868C548.25 209.393 549.081 209.656 550.083 209.656ZM561.256 195.636H564.441V213.065C564.441 214.159 564.242 215.082 563.844 215.835C563.454 216.588 562.871 217.16 562.097 217.55C561.33 217.941 560.382 218.136 559.253 218.136C559.139 218.136 559.033 218.136 558.933 218.136C558.827 218.136 558.717 218.133 558.603 218.126V215.388C558.702 215.388 558.791 215.388 558.869 215.388C558.94 215.388 559.022 215.388 559.114 215.388C559.867 215.388 560.41 215.185 560.744 214.781C561.085 214.383 561.256 213.804 561.256 213.044V195.636ZM562.832 193.112C562.278 193.112 561.802 192.927 561.405 192.558C561.014 192.181 560.819 191.734 560.819 191.215C560.819 190.69 561.014 190.242 561.405 189.873C561.802 189.496 562.278 189.308 562.832 189.308C563.386 189.308 563.859 189.496 564.249 189.873C564.647 190.242 564.846 190.69 564.846 191.215C564.846 191.734 564.647 192.181 564.249 192.558C563.859 192.927 563.386 193.112 562.832 193.112ZM575.779 212.33C574.167 212.33 572.778 211.986 571.613 211.297C570.456 210.601 569.561 209.624 568.929 208.367C568.304 207.103 567.991 205.622 567.991 203.925C567.991 202.249 568.304 200.771 568.929 199.493C569.561 198.214 570.441 197.217 571.571 196.499C572.707 195.782 574.035 195.423 575.555 195.423C576.478 195.423 577.373 195.576 578.24 195.881C579.106 196.187 579.884 196.666 580.573 197.32C581.262 197.973 581.805 198.822 582.203 199.866C582.601 200.903 582.799 202.163 582.799 203.648V204.777H569.792V202.391H579.678C579.678 201.553 579.508 200.81 579.167 200.164C578.826 199.511 578.346 198.996 577.728 198.619C577.118 198.243 576.4 198.055 575.576 198.055C574.682 198.055 573.9 198.275 573.233 198.715C572.572 199.148 572.061 199.717 571.699 200.42C571.343 201.116 571.166 201.872 571.166 202.689V204.553C571.166 205.647 571.358 206.577 571.741 207.344C572.132 208.112 572.675 208.697 573.371 209.102C574.067 209.5 574.88 209.699 575.811 209.699C576.415 209.699 576.965 209.614 577.462 209.443C577.959 209.266 578.389 209.003 578.751 208.655C579.113 208.307 579.39 207.877 579.582 207.366L582.597 207.909C582.356 208.797 581.922 209.575 581.297 210.242C580.679 210.903 579.902 211.418 578.964 211.787C578.034 212.149 576.972 212.33 575.779 212.33ZM593.226 212.33C591.643 212.33 590.279 211.972 589.136 211.254C587.999 210.53 587.126 209.532 586.515 208.261C585.904 206.989 585.599 205.533 585.599 203.893C585.599 202.231 585.911 200.764 586.536 199.493C587.161 198.214 588.042 197.217 589.178 196.499C590.315 195.782 591.653 195.423 593.195 195.423C594.437 195.423 595.545 195.654 596.518 196.116C597.491 196.57 598.276 197.21 598.873 198.033C599.476 198.857 599.835 199.82 599.949 200.92H596.849C596.678 200.153 596.288 199.493 595.677 198.939C595.073 198.385 594.263 198.108 593.248 198.108C592.36 198.108 591.582 198.342 590.915 198.811C590.254 199.273 589.739 199.933 589.37 200.793C589.001 201.645 588.816 202.653 588.816 203.818C588.816 205.011 588.997 206.041 589.359 206.908C589.722 207.774 590.233 208.445 590.893 208.921C591.561 209.397 592.346 209.635 593.248 209.635C593.851 209.635 594.398 209.525 594.888 209.305C595.386 209.077 595.801 208.754 596.135 208.335C596.476 207.916 596.714 207.412 596.849 206.822H599.949C599.835 207.881 599.491 208.825 598.915 209.656C598.34 210.487 597.57 211.141 596.604 211.616C595.645 212.092 594.519 212.33 593.226 212.33ZM610.994 195.636V198.193H602.055V195.636H610.994ZM604.453 191.716H607.638V207.195C607.638 207.813 607.73 208.278 607.915 208.591C608.1 208.896 608.337 209.106 608.629 209.219C608.927 209.326 609.25 209.379 609.598 209.379C609.854 209.379 610.078 209.362 610.269 209.326C610.461 209.29 610.61 209.262 610.717 209.241L611.292 211.872C611.107 211.943 610.845 212.014 610.504 212.085C610.163 212.163 609.737 212.206 609.225 212.213C608.387 212.227 607.606 212.078 606.881 211.766C606.157 211.453 605.571 210.97 605.124 210.317C604.676 209.663 604.453 208.843 604.453 207.856V191.716ZM629.35 212.33C627.766 212.33 626.402 211.972 625.259 211.254C624.122 210.53 623.249 209.532 622.638 208.261C622.027 206.989 621.722 205.533 621.722 203.893C621.722 202.231 622.034 200.764 622.659 199.493C623.284 198.214 624.165 197.217 625.301 196.499C626.438 195.782 627.776 195.423 629.318 195.423C630.56 195.423 631.668 195.654 632.641 196.116C633.614 196.57 634.399 197.21 634.996 198.033C635.6 198.857 635.958 199.82 636.072 200.92H632.972C632.801 200.153 632.411 199.493 631.8 198.939C631.196 198.385 630.386 198.108 629.371 198.108C628.483 198.108 627.705 198.342 627.038 198.811C626.377 199.273 625.862 199.933 625.493 200.793C625.124 201.645 624.939 202.653 624.939 203.818C624.939 205.011 625.12 206.041 625.482 206.908C625.845 207.774 626.356 208.445 627.016 208.921C627.684 209.397 628.469 209.635 629.371 209.635C629.975 209.635 630.521 209.525 631.011 209.305C631.509 209.077 631.924 208.754 632.258 208.335C632.599 207.916 632.837 207.412 632.972 206.822H636.072C635.958 207.881 635.614 208.825 635.038 209.656C634.463 210.487 633.693 211.141 632.727 211.616C631.768 212.092 630.642 212.33 629.35 212.33ZM646.371 212.33C644.837 212.33 643.498 211.979 642.355 211.276C641.211 210.572 640.323 209.589 639.691 208.325C639.059 207.06 638.743 205.583 638.743 203.893C638.743 202.195 639.059 200.711 639.691 199.44C640.323 198.168 641.211 197.181 642.355 196.478C643.498 195.775 644.837 195.423 646.371 195.423C647.905 195.423 649.244 195.775 650.387 196.478C651.531 197.181 652.419 198.168 653.051 199.44C653.683 200.711 653.999 202.195 653.999 203.893C653.999 205.583 653.683 207.06 653.051 208.325C652.419 209.589 651.531 210.572 650.387 211.276C649.244 211.979 647.905 212.33 646.371 212.33ZM646.382 209.656C647.376 209.656 648.2 209.393 648.853 208.868C649.507 208.342 649.99 207.643 650.302 206.769C650.622 205.896 650.782 204.933 650.782 203.882C650.782 202.838 650.622 201.879 650.302 201.006C649.99 200.125 649.507 199.418 648.853 198.886C648.2 198.353 647.376 198.087 646.382 198.087C645.38 198.087 644.549 198.353 643.889 198.886C643.235 199.418 642.749 200.125 642.429 201.006C642.117 201.879 641.96 202.838 641.96 203.882C641.96 204.933 642.117 205.896 642.429 206.769C642.749 207.643 643.235 208.342 643.889 208.868C644.549 209.393 645.38 209.656 646.382 209.656ZM660.74 202.284V212H657.554V195.636H660.612V198.3H660.814C661.191 197.433 661.78 196.737 662.583 196.212C663.392 195.686 664.412 195.423 665.64 195.423C666.755 195.423 667.732 195.658 668.57 196.126C669.408 196.588 670.058 197.277 670.52 198.193C670.981 199.109 671.212 200.242 671.212 201.592V212H668.027V201.975C668.027 200.789 667.718 199.862 667.1 199.195C666.482 198.52 665.633 198.183 664.554 198.183C663.815 198.183 663.158 198.342 662.583 198.662C662.015 198.982 661.564 199.45 661.23 200.068C660.903 200.679 660.74 201.418 660.74 202.284ZM683.123 195.636V198.193H674.184V195.636H683.123ZM676.581 191.716H679.767V207.195C679.767 207.813 679.859 208.278 680.044 208.591C680.228 208.896 680.466 209.106 680.758 209.219C681.056 209.326 681.379 209.379 681.727 209.379C681.983 209.379 682.206 209.362 682.398 209.326C682.59 209.29 682.739 209.262 682.846 209.241L683.421 211.872C683.236 211.943 682.973 212.014 682.633 212.085C682.292 212.163 681.866 212.206 681.354 212.213C680.516 212.227 679.735 212.078 679.01 211.766C678.286 211.453 677.7 210.97 677.253 210.317C676.805 209.663 676.581 208.843 676.581 207.856V191.716ZM693.523 212.33C691.911 212.33 690.522 211.986 689.358 211.297C688.2 210.601 687.305 209.624 686.673 208.367C686.048 207.103 685.735 205.622 685.735 203.925C685.735 202.249 686.048 200.771 686.673 199.493C687.305 198.214 688.186 197.217 689.315 196.499C690.451 195.782 691.779 195.423 693.299 195.423C694.223 195.423 695.117 195.576 695.984 195.881C696.85 196.187 697.628 196.666 698.317 197.32C699.006 197.973 699.549 198.822 699.947 199.866C700.345 200.903 700.544 202.163 700.544 203.648V204.777H687.536V202.391H697.422C697.422 201.553 697.252 200.81 696.911 200.164C696.57 199.511 696.09 198.996 695.473 198.619C694.862 198.243 694.144 198.055 693.321 198.055C692.426 198.055 691.644 198.275 690.977 198.715C690.316 199.148 689.805 199.717 689.443 200.42C689.088 201.116 688.91 201.872 688.91 202.689V204.553C688.91 205.647 689.102 206.577 689.485 207.344C689.876 208.112 690.419 208.697 691.115 209.102C691.811 209.5 692.625 209.699 693.555 209.699C694.159 209.699 694.709 209.614 695.206 209.443C695.703 209.266 696.133 209.003 696.495 208.655C696.858 208.307 697.134 207.877 697.326 207.366L700.341 207.909C700.1 208.797 699.666 209.575 699.041 210.242C698.424 210.903 697.646 211.418 696.708 211.787C695.778 212.149 694.716 212.33 693.523 212.33ZM706.211 195.636L709.823 202.007L713.466 195.636H716.95L711.847 203.818L716.992 212H713.509L709.823 205.885L706.147 212H702.653L707.745 203.818L702.717 195.636H706.211ZM727.859 195.636V198.193H718.921V195.636H727.859ZM721.318 191.716H724.503V207.195C724.503 207.813 724.595 208.278 724.78 208.591C724.965 208.896 725.203 209.106 725.494 209.219C725.792 209.326 726.115 209.379 726.463 209.379C726.719 209.379 726.943 209.362 727.134 209.326C727.326 209.29 727.475 209.262 727.582 209.241L728.157 211.872C727.973 211.943 727.71 212.014 727.369 212.085C727.028 212.163 726.602 212.206 726.09 212.213C725.252 212.227 724.471 212.078 723.747 211.766C723.022 211.453 722.436 210.97 721.989 210.317C721.541 209.663 721.318 208.843 721.318 207.856V191.716Z" fill="#6366F1"/>
<path d="M749.688 205.214V195.636H752.884V212H749.752V209.166H749.581C749.205 210.04 748.601 210.768 747.77 211.35C746.946 211.925 745.92 212.213 744.691 212.213C743.64 212.213 742.71 211.982 741.9 211.521C741.098 211.052 740.465 210.359 740.004 209.443C739.549 208.527 739.322 207.394 739.322 206.045V195.636H742.507V205.661C742.507 206.776 742.816 207.664 743.434 208.325C744.052 208.985 744.855 209.315 745.842 209.315C746.438 209.315 747.032 209.166 747.621 208.868C748.218 208.57 748.711 208.119 749.102 207.515C749.5 206.911 749.695 206.144 749.688 205.214ZM757.164 218.136V195.636H760.275V198.289H760.541C760.726 197.948 760.992 197.554 761.34 197.107C761.688 196.659 762.171 196.268 762.789 195.935C763.407 195.594 764.223 195.423 765.239 195.423C766.56 195.423 767.739 195.757 768.776 196.425C769.813 197.092 770.626 198.055 771.216 199.312C771.812 200.569 772.111 202.082 772.111 203.85C772.111 205.619 771.816 207.135 771.226 208.399C770.637 209.656 769.827 210.626 768.797 211.308C767.767 211.982 766.592 212.32 765.271 212.32C764.277 212.32 763.464 212.153 762.831 211.819C762.206 211.485 761.716 211.094 761.361 210.647C761.006 210.2 760.733 209.802 760.541 209.454H760.349V218.136H757.164ZM760.285 203.818C760.285 204.969 760.452 205.977 760.786 206.844C761.12 207.71 761.603 208.388 762.235 208.879C762.867 209.362 763.641 209.603 764.557 209.603C765.509 209.603 766.304 209.351 766.944 208.847C767.583 208.335 768.066 207.643 768.392 206.769C768.726 205.896 768.893 204.912 768.893 203.818C768.893 202.739 768.73 201.769 768.403 200.91C768.084 200.05 767.601 199.372 766.954 198.875C766.315 198.378 765.516 198.129 764.557 198.129C763.634 198.129 762.853 198.367 762.214 198.843C761.581 199.319 761.102 199.983 760.775 200.835C760.449 201.687 760.285 202.682 760.285 203.818ZM778.865 190.182V212H775.679V190.182H778.865ZM790.043 212.33C788.509 212.33 787.17 211.979 786.027 211.276C784.883 210.572 783.995 209.589 783.363 208.325C782.731 207.06 782.415 205.583 782.415 203.893C782.415 202.195 782.731 200.711 783.363 199.44C783.995 198.168 784.883 197.181 786.027 196.478C787.17 195.775 788.509 195.423 790.043 195.423C791.577 195.423 792.916 195.775 794.059 196.478C795.203 197.181 796.09 198.168 796.723 199.44C797.355 200.711 797.671 202.195 797.671 203.893C797.671 205.583 797.355 207.06 796.723 208.325C796.09 209.589 795.203 210.572 794.059 211.276C792.916 211.979 791.577 212.33 790.043 212.33ZM790.054 209.656C791.048 209.656 791.872 209.393 792.525 208.868C793.179 208.342 793.661 207.643 793.974 206.769C794.294 205.896 794.453 204.933 794.453 203.882C794.453 202.838 794.294 201.879 793.974 201.006C793.661 200.125 793.179 199.418 792.525 198.886C791.872 198.353 791.048 198.087 790.054 198.087C789.052 198.087 788.221 198.353 787.561 198.886C786.907 199.418 786.421 200.125 786.101 201.006C785.789 201.879 785.632 202.838 785.632 203.882C785.632 204.933 785.789 205.896 786.101 206.769C786.421 207.643 786.907 208.342 787.561 208.868C788.221 209.393 789.052 209.656 790.054 209.656ZM805.988 212.362C804.951 212.362 804.014 212.17 803.176 211.787C802.338 211.396 801.674 210.832 801.184 210.093C800.701 209.354 800.459 208.449 800.459 207.376C800.459 206.453 800.637 205.693 800.992 205.097C801.347 204.5 801.826 204.028 802.43 203.68C803.034 203.332 803.709 203.069 804.454 202.891C805.2 202.714 805.96 202.579 806.734 202.487C807.714 202.373 808.51 202.281 809.12 202.21C809.731 202.131 810.175 202.007 810.452 201.837C810.729 201.666 810.868 201.389 810.868 201.006V200.931C810.868 200.001 810.605 199.28 810.079 198.768C809.561 198.257 808.787 198.001 807.757 198.001C806.684 198.001 805.839 198.239 805.221 198.715C804.611 199.184 804.188 199.706 803.954 200.281L800.96 199.599C801.315 198.605 801.834 197.803 802.515 197.192C803.204 196.574 803.996 196.126 804.891 195.849C805.786 195.565 806.727 195.423 807.714 195.423C808.368 195.423 809.06 195.501 809.792 195.658C810.53 195.807 811.219 196.084 811.858 196.489C812.505 196.893 813.034 197.472 813.446 198.225C813.858 198.971 814.064 199.94 814.064 201.134V212H810.953V209.763H810.825C810.619 210.175 810.31 210.58 809.898 210.977C809.486 211.375 808.957 211.705 808.311 211.968C807.665 212.231 806.89 212.362 805.988 212.362ZM806.681 209.805C807.562 209.805 808.314 209.631 808.939 209.283C809.571 208.935 810.051 208.481 810.378 207.92C810.711 207.352 810.878 206.744 810.878 206.098V203.989C810.765 204.102 810.544 204.209 810.218 204.308C809.898 204.401 809.532 204.482 809.12 204.553C808.709 204.617 808.307 204.678 807.917 204.734C807.526 204.784 807.199 204.827 806.937 204.862C806.319 204.94 805.754 205.072 805.243 205.256C804.738 205.441 804.334 205.707 804.028 206.055C803.73 206.396 803.581 206.851 803.581 207.419C803.581 208.207 803.872 208.804 804.454 209.209C805.037 209.607 805.779 209.805 806.681 209.805ZM824.432 212.32C823.111 212.32 821.932 211.982 820.895 211.308C819.865 210.626 819.056 209.656 818.466 208.399C817.884 207.135 817.593 205.619 817.593 203.85C817.593 202.082 817.887 200.569 818.477 199.312C819.073 198.055 819.89 197.092 820.927 196.425C821.964 195.757 823.139 195.423 824.453 195.423C825.469 195.423 826.286 195.594 826.904 195.935C827.529 196.268 828.012 196.659 828.353 197.107C828.701 197.554 828.97 197.948 829.162 198.289H829.354V190.182H832.539V212H829.429V209.454H829.162C828.97 209.802 828.693 210.2 828.331 210.647C827.976 211.094 827.486 211.485 826.861 211.819C826.236 212.153 825.426 212.32 824.432 212.32ZM825.135 209.603C826.051 209.603 826.826 209.362 827.458 208.879C828.097 208.388 828.58 207.71 828.907 206.844C829.24 205.977 829.407 204.969 829.407 203.818C829.407 202.682 829.244 201.687 828.917 200.835C828.59 199.983 828.111 199.319 827.479 198.843C826.847 198.367 826.066 198.129 825.135 198.129C824.176 198.129 823.377 198.378 822.738 198.875C822.099 199.372 821.616 200.05 821.289 200.91C820.97 201.769 820.81 202.739 820.81 203.818C820.81 204.912 820.973 205.896 821.3 206.769C821.627 207.643 822.11 208.335 822.749 208.847C823.395 209.351 824.191 209.603 825.135 209.603ZM852.664 195.636V198.193H843.725V195.636H852.664ZM846.122 191.716H849.308V207.195C849.308 207.813 849.4 208.278 849.585 208.591C849.769 208.896 850.007 209.106 850.299 209.219C850.597 209.326 850.92 209.379 851.268 209.379C851.524 209.379 851.747 209.362 851.939 209.326C852.131 209.29 852.28 209.262 852.387 209.241L852.962 211.872C852.777 211.943 852.514 212.014 852.174 212.085C851.833 212.163 851.407 212.206 850.895 212.213C850.057 212.227 849.276 212.078 848.551 211.766C847.827 211.453 847.241 210.97 846.794 210.317C846.346 209.663 846.122 208.843 846.122 207.856V191.716ZM862.904 212.33C861.37 212.33 860.031 211.979 858.888 211.276C857.744 210.572 856.857 209.589 856.225 208.325C855.592 207.06 855.276 205.583 855.276 203.893C855.276 202.195 855.592 200.711 856.225 199.44C856.857 198.168 857.744 197.181 858.888 196.478C860.031 195.775 861.37 195.423 862.904 195.423C864.438 195.423 865.777 195.775 866.921 196.478C868.064 197.181 868.952 198.168 869.584 199.44C870.216 200.711 870.532 202.195 870.532 203.893C870.532 205.583 870.216 207.06 869.584 208.325C868.952 209.589 868.064 210.572 866.921 211.276C865.777 211.979 864.438 212.33 862.904 212.33ZM862.915 209.656C863.909 209.656 864.733 209.393 865.386 208.868C866.04 208.342 866.523 207.643 866.835 206.769C867.155 205.896 867.315 204.933 867.315 203.882C867.315 202.838 867.155 201.879 866.835 201.006C866.523 200.125 866.04 199.418 865.386 198.886C864.733 198.353 863.909 198.087 862.915 198.087C861.913 198.087 861.082 198.353 860.422 198.886C859.769 199.418 859.282 200.125 858.962 201.006C858.65 201.879 858.494 202.838 858.494 203.882C858.494 204.933 858.65 205.896 858.962 206.769C859.282 207.643 859.769 208.342 860.422 208.868C861.082 209.393 861.913 209.656 862.915 209.656ZM884.041 218.136C883.565 218.136 883.131 218.097 882.741 218.019C882.35 217.948 882.059 217.87 881.867 217.785L882.634 215.175C883.217 215.331 883.735 215.398 884.19 215.377C884.644 215.356 885.046 215.185 885.394 214.866C885.749 214.546 886.061 214.024 886.331 213.3L886.725 212.213L880.738 195.636H884.147L888.291 208.335H888.462L892.606 195.636H896.026L889.282 214.184C888.97 215.036 888.572 215.757 888.089 216.347C887.606 216.943 887.031 217.391 886.363 217.689C885.695 217.987 884.921 218.136 884.041 218.136ZM905.355 212.33C903.821 212.33 902.483 211.979 901.339 211.276C900.196 210.572 899.308 209.589 898.676 208.325C898.044 207.06 897.728 205.583 897.728 203.893C897.728 202.195 898.044 200.711 898.676 199.44C899.308 198.168 900.196 197.181 901.339 196.478C902.483 195.775 903.821 195.423 905.355 195.423C906.889 195.423 908.228 195.775 909.372 196.478C910.515 197.181 911.403 198.168 912.035 199.44C912.667 200.711 912.983 202.195 912.983 203.893C912.983 205.583 912.667 207.06 912.035 208.325C911.403 209.589 910.515 210.572 909.372 211.276C908.228 211.979 906.889 212.33 905.355 212.33ZM905.366 209.656C906.36 209.656 907.184 209.393 907.838 208.868C908.491 208.342 908.974 207.643 909.286 206.769C909.606 205.896 909.766 204.933 909.766 203.882C909.766 202.838 909.606 201.879 909.286 201.006C908.974 200.125 908.491 199.418 907.838 198.886C907.184 198.353 906.36 198.087 905.366 198.087C904.365 198.087 903.534 198.353 902.873 198.886C902.22 199.418 901.733 200.125 901.414 201.006C901.101 201.879 900.945 202.838 900.945 203.882C900.945 204.933 901.101 205.896 901.414 206.769C901.733 207.643 902.22 208.342 902.873 208.868C903.534 209.393 904.365 209.656 905.366 209.656ZM926.905 205.214V195.636H930.101V212H926.968V209.166H926.798C926.422 210.04 925.818 210.768 924.987 211.35C924.163 211.925 923.137 212.213 921.908 212.213C920.857 212.213 919.927 211.982 919.117 211.521C918.314 211.052 917.682 210.359 917.221 209.443C916.766 208.527 916.539 207.394 916.539 206.045V195.636H919.724V205.661C919.724 206.776 920.033 207.664 920.651 208.325C921.269 208.985 922.071 209.315 923.059 209.315C923.655 209.315 924.248 209.166 924.838 208.868C925.434 208.57 925.928 208.119 926.319 207.515C926.716 206.911 926.912 206.144 926.905 205.214ZM934.381 212V195.636H937.459V198.236H937.63C937.928 197.355 938.454 196.663 939.207 196.158C939.967 195.647 940.826 195.391 941.785 195.391C941.984 195.391 942.218 195.398 942.488 195.413C942.765 195.427 942.981 195.445 943.138 195.466V198.513C943.01 198.477 942.783 198.438 942.456 198.396C942.129 198.346 941.802 198.321 941.476 198.321C940.723 198.321 940.052 198.481 939.462 198.8C938.88 199.113 938.418 199.55 938.077 200.111C937.736 200.665 937.566 201.297 937.566 202.007V212H934.381ZM961.621 195.636V198.193H952.374V195.636H961.621ZM954.91 212V193.74C954.91 192.717 955.133 191.869 955.581 191.194C956.028 190.512 956.621 190.004 957.36 189.67C958.099 189.33 958.901 189.159 959.768 189.159C960.407 189.159 960.954 189.212 961.408 189.319C961.863 189.418 962.2 189.511 962.42 189.596L961.675 192.174C961.525 192.131 961.334 192.082 961.099 192.025C960.865 191.961 960.581 191.929 960.247 191.929C959.473 191.929 958.919 192.121 958.585 192.504C958.258 192.888 958.095 193.442 958.095 194.166V212H954.91ZM969.172 212.362C968.135 212.362 967.198 212.17 966.359 211.787C965.521 211.396 964.857 210.832 964.367 210.093C963.884 209.354 963.643 208.449 963.643 207.376C963.643 206.453 963.82 205.693 964.176 205.097C964.531 204.5 965.01 204.028 965.614 203.68C966.217 203.332 966.892 203.069 967.638 202.891C968.384 202.714 969.144 202.579 969.918 202.487C970.898 202.373 971.693 202.281 972.304 202.21C972.915 202.131 973.359 202.007 973.636 201.837C973.913 201.666 974.051 201.389 974.051 201.006V200.931C974.051 200.001 973.788 199.28 973.263 198.768C972.744 198.257 971.97 198.001 970.94 198.001C969.868 198.001 969.023 198.239 968.405 198.715C967.794 199.184 967.372 199.706 967.137 200.281L964.144 199.599C964.499 198.605 965.017 197.803 965.699 197.192C966.388 196.574 967.18 196.126 968.075 195.849C968.97 195.565 969.911 195.423 970.898 195.423C971.551 195.423 972.244 195.501 972.975 195.658C973.714 195.807 974.403 196.084 975.042 196.489C975.688 196.893 976.217 197.472 976.629 198.225C977.041 198.971 977.247 199.94 977.247 201.134V212H974.136V209.763H974.009C973.803 210.175 973.494 210.58 973.082 210.977C972.67 211.375 972.141 211.705 971.494 211.968C970.848 212.231 970.074 212.362 969.172 212.362ZM969.864 209.805C970.745 209.805 971.498 209.631 972.123 209.283C972.755 208.935 973.234 208.481 973.561 207.92C973.895 207.352 974.062 206.744 974.062 206.098V203.989C973.948 204.102 973.728 204.209 973.401 204.308C973.082 204.401 972.716 204.482 972.304 204.553C971.892 204.617 971.491 204.678 971.1 204.734C970.71 204.784 970.383 204.827 970.12 204.862C969.502 204.94 968.938 205.072 968.426 205.256C967.922 205.441 967.517 205.707 967.212 206.055C966.913 206.396 966.764 206.851 966.764 207.419C966.764 208.207 967.055 208.804 967.638 209.209C968.22 209.607 968.962 209.805 969.864 209.805ZM994.903 195.636L988.969 212H985.56L979.615 195.636H983.035L987.179 208.229H987.349L991.483 195.636H994.903ZM1004.23 212.33C1002.7 212.33 1001.36 211.979 1000.22 211.276C999.073 210.572 998.185 209.589 997.553 208.325C996.921 207.06 996.604 205.583 996.604 203.893C996.604 202.195 996.921 200.711 997.553 199.44C998.185 198.168 999.073 197.181 1000.22 196.478C1001.36 195.775 1002.7 195.423 1004.23 195.423C1005.77 195.423 1007.11 195.775 1008.25 196.478C1009.39 197.181 1010.28 198.168 1010.91 199.44C1011.54 200.711 1011.86 202.195 1011.86 203.893C1011.86 205.583 1011.54 207.06 1010.91 208.325C1010.28 209.589 1009.39 210.572 1008.25 211.276C1007.11 211.979 1005.77 212.33 1004.23 212.33ZM1004.24 209.656C1005.24 209.656 1006.06 209.393 1006.71 208.868C1007.37 208.342 1007.85 207.643 1008.16 206.769C1008.48 205.896 1008.64 204.933 1008.64 203.882C1008.64 202.838 1008.48 201.879 1008.16 201.006C1007.85 200.125 1007.37 199.418 1006.71 198.886C1006.06 198.353 1005.24 198.087 1004.24 198.087C1003.24 198.087 1002.41 198.353 1001.75 198.886C1001.1 199.418 1000.61 200.125 1000.29 201.006C999.978 201.879 999.822 202.838 999.822 203.882C999.822 204.933 999.978 205.896 1000.29 206.769C1000.61 207.643 1001.1 208.342 1001.75 208.868C1002.41 209.393 1003.24 209.656 1004.24 209.656ZM1015.42 212V195.636H1018.49V198.236H1018.67C1018.96 197.355 1019.49 196.663 1020.24 196.158C1021 195.647 1021.86 195.391 1022.82 195.391C1023.02 195.391 1023.25 195.398 1023.52 195.413C1023.8 195.427 1024.02 195.445 1024.17 195.466V198.513C1024.05 198.477 1023.82 198.438 1023.49 198.396C1023.16 198.346 1022.84 198.321 1022.51 198.321C1021.76 198.321 1021.09 198.481 1020.5 198.8C1019.92 199.113 1019.45 199.55 1019.11 200.111C1018.77 200.665 1018.6 201.297 1018.6 202.007V212H1015.42ZM1026.93 212V195.636H1030.11V212H1026.93ZM1028.54 193.112C1027.98 193.112 1027.51 192.927 1027.11 192.558C1026.72 192.181 1026.52 191.734 1026.52 191.215C1026.52 190.69 1026.72 190.242 1027.11 189.873C1027.51 189.496 1027.98 189.308 1028.54 189.308C1029.09 189.308 1029.56 189.496 1029.95 189.873C1030.35 190.242 1030.55 190.69 1030.55 191.215C1030.55 191.734 1030.35 192.181 1029.95 192.558C1029.56 192.927 1029.09 193.112 1028.54 193.112ZM1042.04 195.636V198.193H1033.1V195.636H1042.04ZM1035.5 191.716H1038.68V207.195C1038.68 207.813 1038.78 208.278 1038.96 208.591C1039.14 208.896 1039.38 209.106 1039.67 209.219C1039.97 209.326 1040.3 209.379 1040.64 209.379C1040.9 209.379 1041.12 209.362 1041.31 209.326C1041.51 209.29 1041.66 209.262 1041.76 209.241L1042.34 211.872C1042.15 211.943 1041.89 212.014 1041.55 212.085C1041.21 212.163 1040.78 212.206 1040.27 212.213C1039.43 212.227 1038.65 212.078 1037.93 211.766C1037.2 211.453 1036.62 210.97 1036.17 210.317C1035.72 209.663 1035.5 208.843 1035.5 207.856V191.716ZM1052.44 212.33C1050.83 212.33 1049.44 211.986 1048.27 211.297C1047.12 210.601 1046.22 209.624 1045.59 208.367C1044.96 207.103 1044.65 205.622 1044.65 203.925C1044.65 202.249 1044.96 200.771 1045.59 199.493C1046.22 198.214 1047.1 197.217 1048.23 196.499C1049.37 195.782 1050.7 195.423 1052.22 195.423C1053.14 195.423 1054.03 195.576 1054.9 195.881C1055.77 196.187 1056.54 196.666 1057.23 197.32C1057.92 197.973 1058.47 198.822 1058.86 199.866C1059.26 200.903 1059.46 202.163 1059.46 203.648V204.777H1046.45V202.391H1056.34C1056.34 201.553 1056.17 200.81 1055.83 200.164C1055.49 199.511 1055.01 198.996 1054.39 198.619C1053.78 198.243 1053.06 198.055 1052.24 198.055C1051.34 198.055 1050.56 198.275 1049.89 198.715C1049.23 199.148 1048.72 199.717 1048.36 200.42C1048 201.116 1047.83 201.872 1047.83 202.689V204.553C1047.83 205.647 1048.02 206.577 1048.4 207.344C1048.79 208.112 1049.34 208.697 1050.03 209.102C1050.73 209.5 1051.54 209.699 1052.47 209.699C1053.07 209.699 1053.63 209.614 1054.12 209.443C1054.62 209.266 1055.05 209.003 1055.41 208.655C1055.77 208.307 1056.05 207.877 1056.24 207.366L1059.26 207.909C1059.02 208.797 1058.58 209.575 1057.96 210.242C1057.34 210.903 1056.56 211.418 1055.62 211.787C1054.69 212.149 1053.63 212.33 1052.44 212.33ZM1075.7 212.362C1074.66 212.362 1073.72 212.17 1072.88 211.787C1072.04 211.396 1071.38 210.832 1070.89 210.093C1070.41 209.354 1070.17 208.449 1070.17 207.376C1070.17 206.453 1070.34 205.693 1070.7 205.097C1071.05 204.5 1071.53 204.028 1072.14 203.68C1072.74 203.332 1073.42 203.069 1074.16 202.891C1074.91 202.714 1075.67 202.579 1076.44 202.487C1077.42 202.373 1078.22 202.281 1078.83 202.21C1079.44 202.131 1079.88 202.007 1080.16 201.837C1080.44 201.666 1080.57 201.389 1080.57 201.006V200.931C1080.57 200.001 1080.31 199.28 1079.79 198.768C1079.27 198.257 1078.49 198.001 1077.46 198.001C1076.39 198.001 1075.55 198.239 1074.93 198.715C1074.32 199.184 1073.89 199.706 1073.66 200.281L1070.67 199.599C1071.02 198.605 1071.54 197.803 1072.22 197.192C1072.91 196.574 1073.7 196.126 1074.6 195.849C1075.49 195.565 1076.43 195.423 1077.42 195.423C1078.07 195.423 1078.77 195.501 1079.5 195.658C1080.24 195.807 1080.93 196.084 1081.57 196.489C1082.21 196.893 1082.74 197.472 1083.15 198.225C1083.56 198.971 1083.77 199.94 1083.77 201.134V212H1080.66V209.763H1080.53C1080.33 210.175 1080.02 210.58 1079.61 210.977C1079.19 211.375 1078.66 211.705 1078.02 211.968C1077.37 212.231 1076.6 212.362 1075.7 212.362ZM1076.39 209.805C1077.27 209.805 1078.02 209.631 1078.65 209.283C1079.28 208.935 1079.76 208.481 1080.08 207.92C1080.42 207.352 1080.59 206.744 1080.59 206.098V203.989C1080.47 204.102 1080.25 204.209 1079.92 204.308C1079.61 204.401 1079.24 204.482 1078.83 204.553C1078.42 204.617 1078.01 204.678 1077.62 204.734C1077.23 204.784 1076.91 204.827 1076.64 204.862C1076.03 204.94 1075.46 205.072 1074.95 205.256C1074.45 205.441 1074.04 205.707 1073.74 206.055C1073.44 206.396 1073.29 206.851 1073.29 207.419C1073.29 208.207 1073.58 208.804 1074.16 209.209C1074.74 209.607 1075.49 209.805 1076.39 209.805ZM1088.01 212V195.636H1091.2V212H1088.01ZM1089.62 193.112C1089.07 193.112 1088.59 192.927 1088.19 192.558C1087.8 192.181 1087.61 191.734 1087.61 191.215C1087.61 190.69 1087.8 190.242 1088.19 189.873C1088.59 189.496 1089.07 189.308 1089.62 189.308C1090.18 189.308 1090.65 189.496 1091.04 189.873C1091.44 190.242 1091.64 190.69 1091.64 191.215C1091.64 191.734 1091.44 192.181 1091.04 192.558C1090.65 192.927 1090.18 193.112 1089.62 193.112Z" fill="#060606"/>
<path d="M85.8333 280C71.1053 280 59.1667 268.061 59.1667 253.333V204.34C59.1667 197.817 59.1667 194.556 58.4293 191.487C57.776 188.767 56.6987 186.165 55.2373 183.779C53.588 181.088 51.2813 178.781 46.6693 174.169L32.5 160L46.6693 145.831C51.2813 141.219 53.588 138.912 55.2373 136.221C56.6987 133.835 57.776 131.234 58.4293 128.513C59.1667 125.444 59.1667 122.183 59.1667 115.66V66.6667C59.1667 51.9391 71.1053 40 85.8333 40" stroke="#060606" stroke-width="30" stroke-linecap="round" stroke-linejoin="round"/>
<path d="M236.875 280C251.603 280 263.542 268.061 263.542 253.333V204.34C263.542 197.817 263.542 194.556 264.279 191.487C264.932 188.767 266.01 186.165 267.471 183.779C269.12 181.088 271.427 178.781 276.039 174.169L290.208 160L276.039 145.831C271.427 141.219 269.12 138.912 267.471 136.221C266.01 133.835 264.932 131.234 264.279 128.513C263.542 125.444 263.542 122.183 263.542 115.66V66.6667C263.542 51.9391 251.603 40 236.875 40" stroke="#060606" stroke-width="30" stroke-linecap="round" stroke-linejoin="round"/>
<path d="M133.168 69.0133H182.204L162.707 129.155L215 119.649L140.646 268.987L162.336 165.393L107.5 176.142L133.168 69.0133Z" fill="#6366F1"/>
<path d="M387.67 109.625H372.739C372.466 107.693 371.909 105.977 371.068 104.477C370.227 102.955 369.148 101.659 367.83 100.591C366.511 99.5227 364.989 98.7045 363.261 98.1364C361.557 97.5682 359.705 97.2841 357.705 97.2841C354.091 97.2841 350.943 98.1818 348.261 99.9773C345.58 101.75 343.5 104.341 342.023 107.75C340.545 111.136 339.807 115.25 339.807 120.091C339.807 125.068 340.545 129.25 342.023 132.636C343.523 136.023 345.614 138.58 348.295 140.307C350.977 142.034 354.08 142.898 357.602 142.898C359.58 142.898 361.409 142.636 363.091 142.114C364.795 141.591 366.307 140.83 367.625 139.83C368.943 138.807 370.034 137.568 370.898 136.114C371.784 134.659 372.398 133 372.739 131.136L387.67 131.205C387.284 134.409 386.318 137.5 384.773 140.477C383.25 143.432 381.193 146.08 378.602 148.42C376.034 150.739 372.966 152.58 369.398 153.943C365.852 155.284 361.841 155.955 357.364 155.955C351.136 155.955 345.568 154.545 340.659 151.727C335.773 148.909 331.909 144.83 329.068 139.489C326.25 134.148 324.841 127.682 324.841 120.091C324.841 112.477 326.273 106 329.136 100.659C332 95.3182 335.886 91.25 340.795 88.4545C345.705 85.6364 351.227 84.2273 357.364 84.2273C361.409 84.2273 365.159 84.7955 368.614 85.9318C372.091 87.0682 375.17 88.7273 377.852 90.9091C380.534 93.0682 382.716 95.7159 384.398 98.8523C386.102 101.989 387.193 105.58 387.67 109.625ZM462.415 120.091C462.415 127.705 460.972 134.182 458.085 139.523C455.222 144.864 451.313 148.943 446.358 151.761C441.426 154.557 435.881 155.955 429.722 155.955C423.517 155.955 417.949 154.545 413.017 151.727C408.085 148.909 404.188 144.83 401.324 139.489C398.46 134.148 397.028 127.682 397.028 120.091C397.028 112.477 398.46 106 401.324 100.659C404.188 95.3182 408.085 91.25 413.017 88.4545C417.949 85.6364 423.517 84.2273 429.722 84.2273C435.881 84.2273 441.426 85.6364 446.358 88.4545C451.313 91.25 455.222 95.3182 458.085 100.659C460.972 106 462.415 112.477 462.415 120.091ZM447.449 120.091C447.449 115.159 446.71 111 445.233 107.614C443.778 104.227 441.722 101.659 439.062 99.9091C436.403 98.1591 433.29 97.2841 429.722 97.2841C426.153 97.2841 423.04 98.1591 420.381 99.9091C417.722 101.659 415.653 104.227 414.176 107.614C412.722 111 411.994 115.159 411.994 120.091C411.994 125.023 412.722 129.182 414.176 132.568C415.653 135.955 417.722 138.523 420.381 140.273C423.04 142.023 426.153 142.898 429.722 142.898C433.29 142.898 436.403 142.023 439.062 140.273C441.722 138.523 443.778 135.955 445.233 132.568C446.71 129.182 447.449 125.023 447.449 120.091ZM531.747 85.1818V155H518.997L488.622 111.057H488.111V155H473.349V85.1818H486.304L516.44 129.091H517.054V85.1818H531.747ZM541.284 97.3523V85.1818H598.625V97.3523H577.25V155H562.659V97.3523H541.284ZM608.068 155V85.1818H655.114V97.3523H622.83V113.989H652.693V126.159H622.83V142.83H655.25V155H608.068ZM680.69 85.1818L694.77 108.977H695.315L709.463 85.1818H726.134L704.827 120.091L726.611 155H709.634L695.315 131.17H694.77L680.452 155H663.543L685.395 120.091L663.952 85.1818H680.69ZM732.815 97.3523V85.1818H790.156V97.3523H768.781V155H754.19V97.3523H732.815Z" fill="#060606"/>
<path d="M804.068 155V85.1818H818.591V111.432H819.034C819.67 110.023 820.591 108.591 821.795 107.136C823.023 105.659 824.614 104.432 826.568 103.455C828.545 102.455 831 101.955 833.932 101.955C837.75 101.955 841.273 102.955 844.5 104.955C847.727 106.932 850.307 109.92 852.239 113.92C854.17 117.898 855.136 122.886 855.136 128.886C855.136 134.727 854.193 139.659 852.307 143.682C850.443 147.682 847.898 150.716 844.67 152.784C841.466 154.83 837.875 155.852 833.898 155.852C831.08 155.852 828.682 155.386 826.705 154.455C824.75 153.523 823.148 152.352 821.898 150.943C820.648 149.511 819.693 148.068 819.034 146.614H818.386V155H804.068ZM818.284 128.818C818.284 131.932 818.716 134.648 819.58 136.966C820.443 139.284 821.693 141.091 823.33 142.386C824.966 143.659 826.955 144.295 829.295 144.295C831.659 144.295 833.659 143.648 835.295 142.352C836.932 141.034 838.17 139.216 839.011 136.898C839.875 134.557 840.307 131.864 840.307 128.818C840.307 125.795 839.886 123.136 839.045 120.841C838.205 118.545 836.966 116.75 835.33 115.455C833.693 114.159 831.682 113.511 829.295 113.511C826.932 113.511 824.932 114.136 823.295 115.386C821.682 116.636 820.443 118.409 819.58 120.705C818.716 123 818.284 125.705 818.284 128.818ZM898.406 132.705V102.636H912.929V155H898.986V145.489H898.44C897.259 148.557 895.293 151.023 892.543 152.886C889.815 154.75 886.486 155.682 882.554 155.682C879.054 155.682 875.974 154.886 873.315 153.295C870.656 151.705 868.577 149.443 867.077 146.511C865.599 143.58 864.849 140.068 864.827 135.977V102.636H879.349V133.386C879.372 136.477 880.202 138.92 881.838 140.716C883.474 142.511 885.668 143.409 888.418 143.409C890.168 143.409 891.804 143.011 893.327 142.216C894.849 141.398 896.077 140.193 897.009 138.602C897.963 137.011 898.429 135.045 898.406 132.705ZM924.545 155V102.636H939.068V155H924.545ZM931.841 95.8864C929.682 95.8864 927.83 95.1705 926.284 93.7386C924.761 92.2841 924 90.5455 924 88.5227C924 86.5227 924.761 84.8068 926.284 83.375C927.83 81.9205 929.682 81.1932 931.841 81.1932C934 81.1932 935.841 81.9205 937.364 83.375C938.909 84.8068 939.682 86.5227 939.682 88.5227C939.682 90.5455 938.909 92.2841 937.364 93.7386C935.841 95.1705 934 95.8864 931.841 95.8864ZM965.224 85.1818V155H950.702V85.1818H965.224ZM996.153 155.852C992.176 155.852 988.574 154.83 985.347 152.784C982.142 150.716 979.597 147.682 977.71 143.682C975.847 139.659 974.915 134.727 974.915 128.886C974.915 122.886 975.881 117.898 977.812 113.92C979.744 109.92 982.313 106.932 985.517 104.955C988.744 102.955 992.278 101.955 996.119 101.955C999.051 101.955 1001.49 102.455 1003.45 103.455C1005.43 104.432 1007.02 105.659 1008.22 107.136C1009.45 108.591 1010.38 110.023 1011.02 111.432H1011.46V85.1818H1025.95V155H1011.63V146.614H1011.02C1010.34 148.068 1009.37 149.511 1008.12 150.943C1006.89 152.352 1005.29 153.523 1003.31 154.455C1001.36 155.386 998.972 155.852 996.153 155.852ZM1000.76 144.295C1003.1 144.295 1005.07 143.659 1006.69 142.386C1008.32 141.091 1009.57 139.284 1010.44 136.966C1011.32 134.648 1011.77 131.932 1011.77 128.818C1011.77 125.705 1011.34 123 1010.47 120.705C1009.61 118.409 1008.36 116.636 1006.72 115.386C1005.09 114.136 1003.1 113.511 1000.76 113.511C998.369 113.511 996.358 114.159 994.722 115.455C993.085 116.75 991.847 118.545 991.006 120.841C990.165 123.136 989.744 125.795 989.744 128.818C989.744 131.864 990.165 134.557 991.006 136.898C991.869 139.216 993.108 141.034 994.722 142.352C996.358 143.648 998.369 144.295 1000.76 144.295ZM1061.75 156.023C1056.37 156.023 1051.73 154.932 1047.84 152.75C1043.98 150.545 1041 147.432 1038.91 143.409C1036.82 139.364 1035.78 134.58 1035.78 129.057C1035.78 123.67 1036.82 118.943 1038.91 114.875C1041 110.807 1043.95 107.636 1047.74 105.364C1051.56 103.091 1056.04 101.955 1061.17 101.955C1064.63 101.955 1067.84 102.511 1070.82 103.625C1073.82 104.716 1076.43 106.364 1078.66 108.568C1080.91 110.773 1082.66 113.545 1083.91 116.886C1085.16 120.205 1085.79 124.091 1085.79 128.545V132.534H1041.57V123.534H1072.12C1072.12 121.443 1071.66 119.591 1070.75 117.977C1069.84 116.364 1068.58 115.102 1066.97 114.193C1065.38 113.261 1063.53 112.795 1061.41 112.795C1059.21 112.795 1057.25 113.307 1055.55 114.33C1053.87 115.33 1052.55 116.682 1051.59 118.386C1050.64 120.068 1050.15 121.943 1050.13 124.011V132.568C1050.13 135.159 1050.61 137.398 1051.56 139.284C1052.54 141.17 1053.91 142.625 1055.68 143.648C1057.46 144.67 1059.56 145.182 1061.99 145.182C1063.61 145.182 1065.08 144.955 1066.42 144.5C1067.76 144.045 1068.91 143.364 1069.87 142.455C1070.82 141.545 1071.55 140.432 1072.05 139.114L1085.48 140C1084.8 143.227 1083.4 146.045 1081.29 148.455C1079.2 150.841 1076.49 152.705 1073.17 154.045C1069.88 155.364 1066.07 156.023 1061.75 156.023ZM1095.26 155V102.636H1109.34V111.773H1109.89C1110.84 108.523 1112.45 106.068 1114.7 104.409C1116.95 102.727 1119.54 101.886 1122.47 101.886C1123.2 101.886 1123.98 101.932 1124.82 102.023C1125.66 102.114 1126.4 102.239 1127.04 102.398V115.284C1126.36 115.08 1125.41 114.898 1124.21 114.739C1123 114.58 1121.9 114.5 1120.9 114.5C1118.76 114.5 1116.86 114.966 1115.17 115.898C1113.51 116.807 1112.2 118.08 1111.22 119.716C1110.26 121.352 1109.79 123.239 1109.79 125.375V155H1095.26Z" fill="#6366F1"/>
</svg>
