<svg width="1146" height="320" viewBox="0 0 1146 320" fill="none" xmlns="http://www.w3.org/2000/svg">
<rect width="1146" height="320" fill="white"/>
<path d="M366.054 212V190.182H374.044C375.593 190.182 376.875 190.437 377.89 190.949C378.906 191.453 379.666 192.138 380.17 193.005C380.674 193.864 380.926 194.834 380.926 195.913C380.926 196.822 380.76 197.589 380.426 198.214C380.092 198.832 379.644 199.33 379.083 199.706C378.529 200.075 377.919 200.345 377.251 200.516V200.729C377.975 200.764 378.682 200.999 379.371 201.432C380.067 201.858 380.642 202.465 381.097 203.254C381.551 204.042 381.779 205.001 381.779 206.13C381.779 207.245 381.516 208.246 380.99 209.134C380.472 210.015 379.669 210.714 378.583 211.233C377.496 211.744 376.108 212 374.417 212H366.054ZM369.346 209.177H374.098C375.674 209.177 376.804 208.871 377.485 208.261C378.167 207.65 378.508 206.886 378.508 205.97C378.508 205.281 378.334 204.649 377.986 204.074C377.638 203.499 377.141 203.04 376.495 202.7C375.855 202.359 375.095 202.188 374.215 202.188H369.346V209.177ZM369.346 199.621H373.757C374.495 199.621 375.159 199.479 375.749 199.195C376.345 198.911 376.818 198.513 377.166 198.001C377.521 197.483 377.698 196.872 377.698 196.169C377.698 195.267 377.382 194.511 376.75 193.9C376.118 193.289 375.149 192.984 373.842 192.984H369.346V199.621ZM395.793 205.214V195.636H398.989V212H395.857V209.166H395.687C395.31 210.04 394.707 210.768 393.876 211.35C393.052 211.925 392.025 212.213 390.797 212.213C389.746 212.213 388.815 211.982 388.006 211.521C387.203 211.052 386.571 210.359 386.109 209.443C385.655 208.527 385.427 207.394 385.427 206.045V195.636H388.613V205.661C388.613 206.776 388.922 207.664 389.54 208.325C390.158 208.985 390.96 209.315 391.947 209.315C392.544 209.315 393.137 209.166 393.726 208.868C394.323 208.57 394.817 208.119 395.207 207.515C395.605 206.911 395.8 206.144 395.793 205.214ZM403.269 212V195.636H406.455V212H403.269ZM404.878 193.112C404.324 193.112 403.848 192.927 403.45 192.558C403.06 192.181 402.864 191.734 402.864 191.215C402.864 190.69 403.06 190.242 403.45 189.873C403.848 189.496 404.324 189.308 404.878 189.308C405.432 189.308 405.904 189.496 406.295 189.873C406.693 190.242 406.891 190.69 406.891 191.215C406.891 191.734 406.693 192.181 406.295 192.558C405.904 192.927 405.432 193.112 404.878 193.112ZM413.925 190.182V212H410.74V190.182H413.925ZM424.336 212.32C423.015 212.32 421.836 211.982 420.799 211.308C419.77 210.626 418.96 209.656 418.37 208.399C417.788 207.135 417.497 205.619 417.497 203.85C417.497 202.082 417.792 200.569 418.381 199.312C418.978 198.055 419.794 197.092 420.831 196.425C421.868 195.757 423.044 195.423 424.358 195.423C425.373 195.423 426.19 195.594 426.808 195.935C427.433 196.268 427.916 196.659 428.257 197.107C428.605 197.554 428.875 197.948 429.066 198.289H429.258V190.182H432.444V212H429.333V209.454H429.066C428.875 209.802 428.598 210.2 428.236 210.647C427.88 211.094 427.39 211.485 426.765 211.819C426.14 212.153 425.331 212.32 424.336 212.32ZM425.04 209.603C425.956 209.603 426.73 209.362 427.362 208.879C428.001 208.388 428.484 207.71 428.811 206.844C429.145 205.977 429.312 204.969 429.312 203.818C429.312 202.682 429.148 201.687 428.821 200.835C428.495 199.983 428.015 199.319 427.383 198.843C426.751 198.367 425.97 198.129 425.04 198.129C424.081 198.129 423.282 198.378 422.642 198.875C422.003 199.372 421.52 200.05 421.194 200.91C420.874 201.769 420.714 202.739 420.714 203.818C420.714 204.912 420.878 205.896 421.204 206.769C421.531 207.643 422.014 208.335 422.653 208.847C423.299 209.351 424.095 209.603 425.04 209.603ZM446.943 218.136C446.467 218.136 446.034 218.097 445.643 218.019C445.253 217.948 444.961 217.87 444.77 217.785L445.537 215.175C446.119 215.331 446.638 215.398 447.092 215.377C447.547 215.356 447.948 215.185 448.296 214.866C448.651 214.546 448.964 214.024 449.233 213.3L449.628 212.213L443.64 195.636H447.049L451.194 208.335H451.364L455.508 195.636H458.928L452.184 214.184C451.872 215.036 451.474 215.757 450.991 216.347C450.508 216.943 449.933 217.391 449.265 217.689C448.598 217.987 447.824 218.136 446.943 218.136ZM468.258 212.33C466.724 212.33 465.385 211.979 464.241 211.276C463.098 210.572 462.21 209.589 461.578 208.325C460.946 207.06 460.63 205.583 460.63 203.893C460.63 202.195 460.946 200.711 461.578 199.44C462.21 198.168 463.098 197.181 464.241 196.478C465.385 195.775 466.724 195.423 468.258 195.423C469.792 195.423 471.131 195.775 472.274 196.478C473.418 197.181 474.305 198.168 474.937 199.44C475.57 200.711 475.886 202.195 475.886 203.893C475.886 205.583 475.57 207.06 474.937 208.325C474.305 209.589 473.418 210.572 472.274 211.276C471.131 211.979 469.792 212.33 468.258 212.33ZM468.268 209.656C469.263 209.656 470.087 209.393 470.74 208.868C471.393 208.342 471.876 207.643 472.189 206.769C472.508 205.896 472.668 204.933 472.668 203.882C472.668 202.838 472.508 201.879 472.189 201.006C471.876 200.125 471.393 199.418 470.74 198.886C470.087 198.353 469.263 198.087 468.268 198.087C467.267 198.087 466.436 198.353 465.775 198.886C465.122 199.418 464.636 200.125 464.316 201.006C464.003 201.879 463.847 202.838 463.847 203.882C463.847 204.933 464.003 205.896 464.316 206.769C464.636 207.643 465.122 208.342 465.775 208.868C466.436 209.393 467.267 209.656 468.268 209.656ZM489.807 205.214V195.636H493.003V212H489.871V209.166H489.7C489.324 210.04 488.72 210.768 487.889 211.35C487.065 211.925 486.039 212.213 484.81 212.213C483.759 212.213 482.829 211.982 482.019 211.521C481.217 211.052 480.585 210.359 480.123 209.443C479.668 208.527 479.441 207.394 479.441 206.045V195.636H482.627V205.661C482.627 206.776 482.935 207.664 483.553 208.325C484.171 208.985 484.974 209.315 485.961 209.315C486.558 209.315 487.151 209.166 487.74 208.868C488.337 208.57 488.83 208.119 489.221 207.515C489.619 206.911 489.814 206.144 489.807 205.214ZM497.283 212V195.636H500.362V198.236H500.532C500.831 197.355 501.356 196.663 502.109 196.158C502.869 195.647 503.728 195.391 504.687 195.391C504.886 195.391 505.12 195.398 505.39 195.413C505.667 195.427 505.884 195.445 506.04 195.466V198.513C505.912 198.477 505.685 198.438 505.358 198.396C505.032 198.346 504.705 198.321 504.378 198.321C503.625 198.321 502.954 198.481 502.365 198.8C501.782 199.113 501.321 199.55 500.98 200.111C500.639 200.665 500.468 201.297 500.468 202.007V212H497.283ZM516.736 218.136V195.636H519.847V198.289H520.113C520.298 197.948 520.564 197.554 520.912 197.107C521.26 196.659 521.743 196.268 522.361 195.935C522.979 195.594 523.796 195.423 524.811 195.423C526.132 195.423 527.311 195.757 528.348 196.425C529.385 197.092 530.198 198.055 530.788 199.312C531.385 200.569 531.683 202.082 531.683 203.85C531.683 205.619 531.388 207.135 530.799 208.399C530.209 209.656 529.399 210.626 528.37 211.308C527.34 211.982 526.164 212.32 524.843 212.32C523.849 212.32 523.036 212.153 522.404 211.819C521.779 211.485 521.289 211.094 520.934 210.647C520.578 210.2 520.305 209.802 520.113 209.454H519.921V218.136H516.736ZM519.858 203.818C519.858 204.969 520.024 205.977 520.358 206.844C520.692 207.71 521.175 208.388 521.807 208.879C522.439 209.362 523.213 209.603 524.13 209.603C525.081 209.603 525.877 209.351 526.516 208.847C527.155 208.335 527.638 207.643 527.965 206.769C528.299 205.896 528.465 204.912 528.465 203.818C528.465 202.739 528.302 201.769 527.975 200.91C527.656 200.05 527.173 199.372 526.527 198.875C525.887 198.378 525.088 198.129 524.13 198.129C523.206 198.129 522.425 198.367 521.786 198.843C521.154 199.319 520.674 199.983 520.348 200.835C520.021 201.687 519.858 202.682 519.858 203.818ZM535.252 212V195.636H538.331V198.236H538.501C538.799 197.355 539.325 196.663 540.078 196.158C540.838 195.647 541.697 195.391 542.656 195.391C542.855 195.391 543.089 195.398 543.359 195.413C543.636 195.427 543.853 195.445 544.009 195.466V198.513C543.881 198.477 543.654 198.438 543.327 198.396C543 198.346 542.674 198.321 542.347 198.321C541.594 198.321 540.923 198.481 540.333 198.8C539.751 199.113 539.289 199.55 538.948 200.111C538.608 200.665 538.437 201.297 538.437 202.007V212H535.252ZM553.072 212.33C551.538 212.33 550.199 211.979 549.056 211.276C547.912 210.572 547.025 209.589 546.392 208.325C545.76 207.06 545.444 205.583 545.444 203.893C545.444 202.195 545.76 200.711 546.392 199.44C547.025 198.168 547.912 197.181 549.056 196.478C550.199 195.775 551.538 195.423 553.072 195.423C554.606 195.423 555.945 195.775 557.089 196.478C558.232 197.181 559.12 198.168 559.752 199.44C560.384 200.711 560.7 202.195 560.7 203.893C560.7 205.583 560.384 207.06 559.752 208.325C559.12 209.589 558.232 210.572 557.089 211.276C555.945 211.979 554.606 212.33 553.072 212.33ZM553.083 209.656C554.077 209.656 554.901 209.393 555.554 208.868C556.208 208.342 556.691 207.643 557.003 206.769C557.323 205.896 557.483 204.933 557.483 203.882C557.483 202.838 557.323 201.879 557.003 201.006C556.691 200.125 556.208 199.418 555.554 198.886C554.901 198.353 554.077 198.087 553.083 198.087C552.081 198.087 551.25 198.353 550.59 198.886C549.937 199.418 549.45 200.125 549.13 201.006C548.818 201.879 548.662 202.838 548.662 203.882C548.662 204.933 548.818 205.896 549.13 206.769C549.45 207.643 549.937 208.342 550.59 208.868C551.25 209.393 552.081 209.656 553.083 209.656ZM564.256 195.636H567.441V213.065C567.441 214.159 567.242 215.082 566.844 215.835C566.454 216.588 565.871 217.16 565.097 217.55C564.33 217.941 563.382 218.136 562.253 218.136C562.139 218.136 562.033 218.136 561.933 218.136C561.827 218.136 561.717 218.133 561.603 218.126V215.388C561.702 215.388 561.791 215.388 561.869 215.388C561.94 215.388 562.022 215.388 562.114 215.388C562.867 215.388 563.41 215.185 563.744 214.781C564.085 214.383 564.256 213.804 564.256 213.044V195.636ZM565.832 193.112C565.278 193.112 564.802 192.927 564.405 192.558C564.014 192.181 563.819 191.734 563.819 191.215C563.819 190.69 564.014 190.242 564.405 189.873C564.802 189.496 565.278 189.308 565.832 189.308C566.386 189.308 566.859 189.496 567.249 189.873C567.647 190.242 567.846 190.69 567.846 191.215C567.846 191.734 567.647 192.181 567.249 192.558C566.859 192.927 566.386 193.112 565.832 193.112ZM578.779 212.33C577.167 212.33 575.778 211.986 574.613 211.297C573.456 210.601 572.561 209.624 571.929 208.367C571.304 207.103 570.991 205.622 570.991 203.925C570.991 202.249 571.304 200.771 571.929 199.493C572.561 198.214 573.441 197.217 574.571 196.499C575.707 195.782 577.035 195.423 578.555 195.423C579.478 195.423 580.373 195.576 581.24 195.881C582.106 196.187 582.884 196.666 583.573 197.32C584.262 197.973 584.805 198.822 585.203 199.866C585.601 200.903 585.799 202.163 585.799 203.648V204.777H572.792V202.391H582.678C582.678 201.553 582.508 200.81 582.167 200.164C581.826 199.511 581.346 198.996 580.728 198.619C580.118 198.243 579.4 198.055 578.576 198.055C577.682 198.055 576.9 198.275 576.233 198.715C575.572 199.148 575.061 199.717 574.699 200.42C574.343 201.116 574.166 201.872 574.166 202.689V204.553C574.166 205.647 574.358 206.577 574.741 207.344C575.132 208.112 575.675 208.697 576.371 209.102C577.067 209.5 577.88 209.699 578.811 209.699C579.415 209.699 579.965 209.614 580.462 209.443C580.959 209.266 581.389 209.003 581.751 208.655C582.113 208.307 582.39 207.877 582.582 207.366L585.597 207.909C585.356 208.797 584.922 209.575 584.297 210.242C583.679 210.903 582.902 211.418 581.964 211.787C581.034 212.149 579.972 212.33 578.779 212.33ZM596.226 212.33C594.643 212.33 593.279 211.972 592.136 211.254C590.999 210.53 590.126 209.532 589.515 208.261C588.904 206.989 588.599 205.533 588.599 203.893C588.599 202.231 588.911 200.764 589.536 199.493C590.161 198.214 591.042 197.217 592.178 196.499C593.315 195.782 594.653 195.423 596.195 195.423C597.437 195.423 598.545 195.654 599.518 196.116C600.491 196.57 601.276 197.21 601.873 198.033C602.476 198.857 602.835 199.82 602.949 200.92H599.849C599.678 200.153 599.288 199.493 598.677 198.939C598.073 198.385 597.263 198.108 596.248 198.108C595.36 198.108 594.582 198.342 593.915 198.811C593.254 199.273 592.739 199.933 592.37 200.793C592.001 201.645 591.816 202.653 591.816 203.818C591.816 205.011 591.997 206.041 592.359 206.908C592.722 207.774 593.233 208.445 593.893 208.921C594.561 209.397 595.346 209.635 596.248 209.635C596.851 209.635 597.398 209.525 597.888 209.305C598.386 209.077 598.801 208.754 599.135 208.335C599.476 207.916 599.714 207.412 599.849 206.822H602.949C602.835 207.881 602.491 208.825 601.915 209.656C601.34 210.487 600.57 211.141 599.604 211.616C598.645 212.092 597.519 212.33 596.226 212.33ZM613.994 195.636V198.193H605.055V195.636H613.994ZM607.453 191.716H610.638V207.195C610.638 207.813 610.73 208.278 610.915 208.591C611.1 208.896 611.337 209.106 611.629 209.219C611.927 209.326 612.25 209.379 612.598 209.379C612.854 209.379 613.078 209.362 613.269 209.326C613.461 209.29 613.61 209.262 613.717 209.241L614.292 211.872C614.107 211.943 613.845 212.014 613.504 212.085C613.163 212.163 612.737 212.206 612.225 212.213C611.387 212.227 610.606 212.078 609.881 211.766C609.157 211.453 608.571 210.97 608.124 210.317C607.676 209.663 607.453 208.843 607.453 207.856V191.716ZM632.35 212.33C630.766 212.33 629.402 211.972 628.259 211.254C627.122 210.53 626.249 209.532 625.638 208.261C625.027 206.989 624.722 205.533 624.722 203.893C624.722 202.231 625.034 200.764 625.659 199.493C626.284 198.214 627.165 197.217 628.301 196.499C629.438 195.782 630.776 195.423 632.318 195.423C633.56 195.423 634.668 195.654 635.641 196.116C636.614 196.57 637.399 197.21 637.996 198.033C638.6 198.857 638.958 199.82 639.072 200.92H635.972C635.801 200.153 635.411 199.493 634.8 198.939C634.196 198.385 633.386 198.108 632.371 198.108C631.483 198.108 630.705 198.342 630.038 198.811C629.377 199.273 628.862 199.933 628.493 200.793C628.124 201.645 627.939 202.653 627.939 203.818C627.939 205.011 628.12 206.041 628.482 206.908C628.845 207.774 629.356 208.445 630.016 208.921C630.684 209.397 631.469 209.635 632.371 209.635C632.975 209.635 633.521 209.525 634.011 209.305C634.509 209.077 634.924 208.754 635.258 208.335C635.599 207.916 635.837 207.412 635.972 206.822H639.072C638.958 207.881 638.614 208.825 638.038 209.656C637.463 210.487 636.693 211.141 635.727 211.616C634.768 212.092 633.642 212.33 632.35 212.33ZM649.371 212.33C647.837 212.33 646.498 211.979 645.355 211.276C644.211 210.572 643.323 209.589 642.691 208.325C642.059 207.06 641.743 205.583 641.743 203.893C641.743 202.195 642.059 200.711 642.691 199.44C643.323 198.168 644.211 197.181 645.355 196.478C646.498 195.775 647.837 195.423 649.371 195.423C650.905 195.423 652.244 195.775 653.387 196.478C654.531 197.181 655.419 198.168 656.051 199.44C656.683 200.711 656.999 202.195 656.999 203.893C656.999 205.583 656.683 207.06 656.051 208.325C655.419 209.589 654.531 210.572 653.387 211.276C652.244 211.979 650.905 212.33 649.371 212.33ZM649.382 209.656C650.376 209.656 651.2 209.393 651.853 208.868C652.507 208.342 652.99 207.643 653.302 206.769C653.622 205.896 653.782 204.933 653.782 203.882C653.782 202.838 653.622 201.879 653.302 201.006C652.99 200.125 652.507 199.418 651.853 198.886C651.2 198.353 650.376 198.087 649.382 198.087C648.38 198.087 647.549 198.353 646.889 198.886C646.235 199.418 645.749 200.125 645.429 201.006C645.117 201.879 644.96 202.838 644.96 203.882C644.96 204.933 645.117 205.896 645.429 206.769C645.749 207.643 646.235 208.342 646.889 208.868C647.549 209.393 648.38 209.656 649.382 209.656ZM663.74 202.284V212H660.554V195.636H663.612V198.3H663.814C664.191 197.433 664.78 196.737 665.583 196.212C666.392 195.686 667.412 195.423 668.64 195.423C669.755 195.423 670.732 195.658 671.57 196.126C672.408 196.588 673.058 197.277 673.52 198.193C673.981 199.109 674.212 200.242 674.212 201.592V212H671.027V201.975C671.027 200.789 670.718 199.862 670.1 199.195C669.482 198.52 668.633 198.183 667.554 198.183C666.815 198.183 666.158 198.342 665.583 198.662C665.015 198.982 664.564 199.45 664.23 200.068C663.903 200.679 663.74 201.418 663.74 202.284ZM686.123 195.636V198.193H677.184V195.636H686.123ZM679.581 191.716H682.767V207.195C682.767 207.813 682.859 208.278 683.044 208.591C683.228 208.896 683.466 209.106 683.758 209.219C684.056 209.326 684.379 209.379 684.727 209.379C684.983 209.379 685.206 209.362 685.398 209.326C685.59 209.29 685.739 209.262 685.846 209.241L686.421 211.872C686.236 211.943 685.973 212.014 685.633 212.085C685.292 212.163 684.866 212.206 684.354 212.213C683.516 212.227 682.735 212.078 682.01 211.766C681.286 211.453 680.7 210.97 680.253 210.317C679.805 209.663 679.581 208.843 679.581 207.856V191.716ZM696.523 212.33C694.911 212.33 693.522 211.986 692.358 211.297C691.2 210.601 690.305 209.624 689.673 208.367C689.048 207.103 688.735 205.622 688.735 203.925C688.735 202.249 689.048 200.771 689.673 199.493C690.305 198.214 691.186 197.217 692.315 196.499C693.451 195.782 694.779 195.423 696.299 195.423C697.223 195.423 698.117 195.576 698.984 195.881C699.85 196.187 700.628 196.666 701.317 197.32C702.006 197.973 702.549 198.822 702.947 199.866C703.345 200.903 703.544 202.163 703.544 203.648V204.777H690.536V202.391H700.422C700.422 201.553 700.252 200.81 699.911 200.164C699.57 199.511 699.09 198.996 698.473 198.619C697.862 198.243 697.144 198.055 696.321 198.055C695.426 198.055 694.644 198.275 693.977 198.715C693.316 199.148 692.805 199.717 692.443 200.42C692.088 201.116 691.91 201.872 691.91 202.689V204.553C691.91 205.647 692.102 206.577 692.485 207.344C692.876 208.112 693.419 208.697 694.115 209.102C694.811 209.5 695.625 209.699 696.555 209.699C697.159 209.699 697.709 209.614 698.206 209.443C698.703 209.266 699.133 209.003 699.495 208.655C699.858 208.307 700.134 207.877 700.326 207.366L703.341 207.909C703.1 208.797 702.666 209.575 702.041 210.242C701.424 210.903 700.646 211.418 699.708 211.787C698.778 212.149 697.716 212.33 696.523 212.33ZM709.211 195.636L712.823 202.007L716.466 195.636H719.95L714.847 203.818L719.992 212H716.509L712.823 205.885L709.147 212H705.653L710.745 203.818L705.717 195.636H709.211ZM730.859 195.636V198.193H721.921V195.636H730.859ZM724.318 191.716H727.503V207.195C727.503 207.813 727.595 208.278 727.78 208.591C727.965 208.896 728.203 209.106 728.494 209.219C728.792 209.326 729.115 209.379 729.463 209.379C729.719 209.379 729.943 209.362 730.134 209.326C730.326 209.29 730.475 209.262 730.582 209.241L731.157 211.872C730.973 211.943 730.71 212.014 730.369 212.085C730.028 212.163 729.602 212.206 729.09 212.213C728.252 212.227 727.471 212.078 726.747 211.766C726.022 211.453 725.436 210.97 724.989 210.317C724.541 209.663 724.318 208.843 724.318 207.856V191.716Z" fill="#6366F1"/>
<path d="M752.688 205.214V195.636H755.884V212H752.752V209.166H752.581C752.205 210.04 751.601 210.768 750.77 211.35C749.946 211.925 748.92 212.213 747.691 212.213C746.64 212.213 745.71 211.982 744.9 211.521C744.098 211.052 743.465 210.359 743.004 209.443C742.549 208.527 742.322 207.394 742.322 206.045V195.636H745.507V205.661C745.507 206.776 745.816 207.664 746.434 208.325C747.052 208.985 747.855 209.315 748.842 209.315C749.438 209.315 750.032 209.166 750.621 208.868C751.218 208.57 751.711 208.119 752.102 207.515C752.5 206.911 752.695 206.144 752.688 205.214ZM760.164 218.136V195.636H763.275V198.289H763.541C763.726 197.948 763.992 197.554 764.34 197.107C764.688 196.659 765.171 196.268 765.789 195.935C766.407 195.594 767.223 195.423 768.239 195.423C769.56 195.423 770.739 195.757 771.776 196.425C772.813 197.092 773.626 198.055 774.216 199.312C774.812 200.569 775.111 202.082 775.111 203.85C775.111 205.619 774.816 207.135 774.226 208.399C773.637 209.656 772.827 210.626 771.797 211.308C770.767 211.982 769.592 212.32 768.271 212.32C767.277 212.32 766.464 212.153 765.831 211.819C765.206 211.485 764.716 211.094 764.361 210.647C764.006 210.2 763.733 209.802 763.541 209.454H763.349V218.136H760.164ZM763.285 203.818C763.285 204.969 763.452 205.977 763.786 206.844C764.12 207.71 764.603 208.388 765.235 208.879C765.867 209.362 766.641 209.603 767.557 209.603C768.509 209.603 769.304 209.351 769.944 208.847C770.583 208.335 771.066 207.643 771.392 206.769C771.726 205.896 771.893 204.912 771.893 203.818C771.893 202.739 771.73 201.769 771.403 200.91C771.084 200.05 770.601 199.372 769.954 198.875C769.315 198.378 768.516 198.129 767.557 198.129C766.634 198.129 765.853 198.367 765.214 198.843C764.581 199.319 764.102 199.983 763.775 200.835C763.449 201.687 763.285 202.682 763.285 203.818ZM781.865 190.182V212H778.679V190.182H781.865ZM793.043 212.33C791.509 212.33 790.17 211.979 789.027 211.276C787.883 210.572 786.995 209.589 786.363 208.325C785.731 207.06 785.415 205.583 785.415 203.893C785.415 202.195 785.731 200.711 786.363 199.44C786.995 198.168 787.883 197.181 789.027 196.478C790.17 195.775 791.509 195.423 793.043 195.423C794.577 195.423 795.916 195.775 797.059 196.478C798.203 197.181 799.09 198.168 799.723 199.44C800.355 200.711 800.671 202.195 800.671 203.893C800.671 205.583 800.355 207.06 799.723 208.325C799.09 209.589 798.203 210.572 797.059 211.276C795.916 211.979 794.577 212.33 793.043 212.33ZM793.054 209.656C794.048 209.656 794.872 209.393 795.525 208.868C796.179 208.342 796.661 207.643 796.974 206.769C797.294 205.896 797.453 204.933 797.453 203.882C797.453 202.838 797.294 201.879 796.974 201.006C796.661 200.125 796.179 199.418 795.525 198.886C794.872 198.353 794.048 198.087 793.054 198.087C792.052 198.087 791.221 198.353 790.561 198.886C789.907 199.418 789.421 200.125 789.101 201.006C788.789 201.879 788.632 202.838 788.632 203.882C788.632 204.933 788.789 205.896 789.101 206.769C789.421 207.643 789.907 208.342 790.561 208.868C791.221 209.393 792.052 209.656 793.054 209.656ZM808.988 212.362C807.951 212.362 807.014 212.17 806.176 211.787C805.338 211.396 804.674 210.832 804.184 210.093C803.701 209.354 803.459 208.449 803.459 207.376C803.459 206.453 803.637 205.693 803.992 205.097C804.347 204.5 804.826 204.028 805.43 203.68C806.034 203.332 806.709 203.069 807.454 202.891C808.2 202.714 808.96 202.579 809.734 202.487C810.714 202.373 811.51 202.281 812.12 202.21C812.731 202.131 813.175 202.007 813.452 201.837C813.729 201.666 813.868 201.389 813.868 201.006V200.931C813.868 200.001 813.605 199.28 813.079 198.768C812.561 198.257 811.787 198.001 810.757 198.001C809.684 198.001 808.839 198.239 808.221 198.715C807.611 199.184 807.188 199.706 806.954 200.281L803.96 199.599C804.315 198.605 804.834 197.803 805.515 197.192C806.204 196.574 806.996 196.126 807.891 195.849C808.786 195.565 809.727 195.423 810.714 195.423C811.368 195.423 812.06 195.501 812.792 195.658C813.53 195.807 814.219 196.084 814.858 196.489C815.505 196.893 816.034 197.472 816.446 198.225C816.858 198.971 817.064 199.94 817.064 201.134V212H813.953V209.763H813.825C813.619 210.175 813.31 210.58 812.898 210.977C812.486 211.375 811.957 211.705 811.311 211.968C810.665 212.231 809.89 212.362 808.988 212.362ZM809.681 209.805C810.562 209.805 811.314 209.631 811.939 209.283C812.571 208.935 813.051 208.481 813.378 207.92C813.711 207.352 813.878 206.744 813.878 206.098V203.989C813.765 204.102 813.544 204.209 813.218 204.308C812.898 204.401 812.532 204.482 812.12 204.553C811.709 204.617 811.307 204.678 810.917 204.734C810.526 204.784 810.199 204.827 809.937 204.862C809.319 204.94 808.754 205.072 808.243 205.256C807.738 205.441 807.334 205.707 807.028 206.055C806.73 206.396 806.581 206.851 806.581 207.419C806.581 208.207 806.872 208.804 807.454 209.209C808.037 209.607 808.779 209.805 809.681 209.805ZM827.432 212.32C826.111 212.32 824.932 211.982 823.895 211.308C822.865 210.626 822.056 209.656 821.466 208.399C820.884 207.135 820.593 205.619 820.593 203.85C820.593 202.082 820.887 200.569 821.477 199.312C822.073 198.055 822.89 197.092 823.927 196.425C824.964 195.757 826.139 195.423 827.453 195.423C828.469 195.423 829.286 195.594 829.904 195.935C830.529 196.268 831.012 196.659 831.353 197.107C831.701 197.554 831.97 197.948 832.162 198.289H832.354V190.182H835.539V212H832.429V209.454H832.162C831.97 209.802 831.693 210.2 831.331 210.647C830.976 211.094 830.486 211.485 829.861 211.819C829.236 212.153 828.426 212.32 827.432 212.32ZM828.135 209.603C829.051 209.603 829.826 209.362 830.458 208.879C831.097 208.388 831.58 207.71 831.907 206.844C832.24 205.977 832.407 204.969 832.407 203.818C832.407 202.682 832.244 201.687 831.917 200.835C831.59 199.983 831.111 199.319 830.479 198.843C829.847 198.367 829.066 198.129 828.135 198.129C827.176 198.129 826.377 198.378 825.738 198.875C825.099 199.372 824.616 200.05 824.289 200.91C823.97 201.769 823.81 202.739 823.81 203.818C823.81 204.912 823.973 205.896 824.3 206.769C824.627 207.643 825.11 208.335 825.749 208.847C826.395 209.351 827.191 209.603 828.135 209.603ZM855.664 195.636V198.193H846.725V195.636H855.664ZM849.122 191.716H852.308V207.195C852.308 207.813 852.4 208.278 852.585 208.591C852.769 208.896 853.007 209.106 853.299 209.219C853.597 209.326 853.92 209.379 854.268 209.379C854.524 209.379 854.747 209.362 854.939 209.326C855.131 209.29 855.28 209.262 855.387 209.241L855.962 211.872C855.777 211.943 855.514 212.014 855.174 212.085C854.833 212.163 854.407 212.206 853.895 212.213C853.057 212.227 852.276 212.078 851.551 211.766C850.827 211.453 850.241 210.97 849.794 210.317C849.346 209.663 849.122 208.843 849.122 207.856V191.716ZM865.904 212.33C864.37 212.33 863.031 211.979 861.888 211.276C860.744 210.572 859.857 209.589 859.225 208.325C858.592 207.06 858.276 205.583 858.276 203.893C858.276 202.195 858.592 200.711 859.225 199.44C859.857 198.168 860.744 197.181 861.888 196.478C863.031 195.775 864.37 195.423 865.904 195.423C867.438 195.423 868.777 195.775 869.921 196.478C871.064 197.181 871.952 198.168 872.584 199.44C873.216 200.711 873.532 202.195 873.532 203.893C873.532 205.583 873.216 207.06 872.584 208.325C871.952 209.589 871.064 210.572 869.921 211.276C868.777 211.979 867.438 212.33 865.904 212.33ZM865.915 209.656C866.909 209.656 867.733 209.393 868.386 208.868C869.04 208.342 869.523 207.643 869.835 206.769C870.155 205.896 870.315 204.933 870.315 203.882C870.315 202.838 870.155 201.879 869.835 201.006C869.523 200.125 869.04 199.418 868.386 198.886C867.733 198.353 866.909 198.087 865.915 198.087C864.913 198.087 864.082 198.353 863.422 198.886C862.769 199.418 862.282 200.125 861.962 201.006C861.65 201.879 861.494 202.838 861.494 203.882C861.494 204.933 861.65 205.896 861.962 206.769C862.282 207.643 862.769 208.342 863.422 208.868C864.082 209.393 864.913 209.656 865.915 209.656ZM887.041 218.136C886.565 218.136 886.131 218.097 885.741 218.019C885.35 217.948 885.059 217.87 884.867 217.785L885.634 215.175C886.217 215.331 886.735 215.398 887.19 215.377C887.644 215.356 888.046 215.185 888.394 214.866C888.749 214.546 889.061 214.024 889.331 213.3L889.725 212.213L883.738 195.636H887.147L891.291 208.335H891.462L895.606 195.636H899.026L892.282 214.184C891.97 215.036 891.572 215.757 891.089 216.347C890.606 216.943 890.031 217.391 889.363 217.689C888.695 217.987 887.921 218.136 887.041 218.136ZM908.355 212.33C906.821 212.33 905.483 211.979 904.339 211.276C903.196 210.572 902.308 209.589 901.676 208.325C901.044 207.06 900.728 205.583 900.728 203.893C900.728 202.195 901.044 200.711 901.676 199.44C902.308 198.168 903.196 197.181 904.339 196.478C905.483 195.775 906.821 195.423 908.355 195.423C909.889 195.423 911.228 195.775 912.372 196.478C913.515 197.181 914.403 198.168 915.035 199.44C915.667 200.711 915.983 202.195 915.983 203.893C915.983 205.583 915.667 207.06 915.035 208.325C914.403 209.589 913.515 210.572 912.372 211.276C911.228 211.979 909.889 212.33 908.355 212.33ZM908.366 209.656C909.36 209.656 910.184 209.393 910.838 208.868C911.491 208.342 911.974 207.643 912.286 206.769C912.606 205.896 912.766 204.933 912.766 203.882C912.766 202.838 912.606 201.879 912.286 201.006C911.974 200.125 911.491 199.418 910.838 198.886C910.184 198.353 909.36 198.087 908.366 198.087C907.365 198.087 906.534 198.353 905.873 198.886C905.22 199.418 904.733 200.125 904.414 201.006C904.101 201.879 903.945 202.838 903.945 203.882C903.945 204.933 904.101 205.896 904.414 206.769C904.733 207.643 905.22 208.342 905.873 208.868C906.534 209.393 907.365 209.656 908.366 209.656ZM929.905 205.214V195.636H933.101V212H929.968V209.166H929.798C929.422 210.04 928.818 210.768 927.987 211.35C927.163 211.925 926.137 212.213 924.908 212.213C923.857 212.213 922.927 211.982 922.117 211.521C921.314 211.052 920.682 210.359 920.221 209.443C919.766 208.527 919.539 207.394 919.539 206.045V195.636H922.724V205.661C922.724 206.776 923.033 207.664 923.651 208.325C924.269 208.985 925.071 209.315 926.059 209.315C926.655 209.315 927.248 209.166 927.838 208.868C928.434 208.57 928.928 208.119 929.319 207.515C929.716 206.911 929.912 206.144 929.905 205.214ZM937.381 212V195.636H940.459V198.236H940.63C940.928 197.355 941.454 196.663 942.207 196.158C942.967 195.647 943.826 195.391 944.785 195.391C944.984 195.391 945.218 195.398 945.488 195.413C945.765 195.427 945.981 195.445 946.138 195.466V198.513C946.01 198.477 945.783 198.438 945.456 198.396C945.129 198.346 944.802 198.321 944.476 198.321C943.723 198.321 943.052 198.481 942.462 198.8C941.88 199.113 941.418 199.55 941.077 200.111C940.736 200.665 940.566 201.297 940.566 202.007V212H937.381ZM964.621 195.636V198.193H955.374V195.636H964.621ZM957.91 212V193.74C957.91 192.717 958.133 191.869 958.581 191.194C959.028 190.512 959.621 190.004 960.36 189.67C961.099 189.33 961.901 189.159 962.768 189.159C963.407 189.159 963.954 189.212 964.408 189.319C964.863 189.418 965.2 189.511 965.42 189.596L964.675 192.174C964.525 192.131 964.334 192.082 964.099 192.025C963.865 191.961 963.581 191.929 963.247 191.929C962.473 191.929 961.919 192.121 961.585 192.504C961.258 192.888 961.095 193.442 961.095 194.166V212H957.91ZM972.172 212.362C971.135 212.362 970.198 212.17 969.359 211.787C968.521 211.396 967.857 210.832 967.367 210.093C966.884 209.354 966.643 208.449 966.643 207.376C966.643 206.453 966.82 205.693 967.176 205.097C967.531 204.5 968.01 204.028 968.614 203.68C969.217 203.332 969.892 203.069 970.638 202.891C971.384 202.714 972.144 202.579 972.918 202.487C973.898 202.373 974.693 202.281 975.304 202.21C975.915 202.131 976.359 202.007 976.636 201.837C976.913 201.666 977.051 201.389 977.051 201.006V200.931C977.051 200.001 976.788 199.28 976.263 198.768C975.744 198.257 974.97 198.001 973.94 198.001C972.868 198.001 972.023 198.239 971.405 198.715C970.794 199.184 970.372 199.706 970.137 200.281L967.144 199.599C967.499 198.605 968.017 197.803 968.699 197.192C969.388 196.574 970.18 196.126 971.075 195.849C971.97 195.565 972.911 195.423 973.898 195.423C974.551 195.423 975.244 195.501 975.975 195.658C976.714 195.807 977.403 196.084 978.042 196.489C978.688 196.893 979.217 197.472 979.629 198.225C980.041 198.971 980.247 199.94 980.247 201.134V212H977.136V209.763H977.009C976.803 210.175 976.494 210.58 976.082 210.977C975.67 211.375 975.141 211.705 974.494 211.968C973.848 212.231 973.074 212.362 972.172 212.362ZM972.864 209.805C973.745 209.805 974.498 209.631 975.123 209.283C975.755 208.935 976.234 208.481 976.561 207.92C976.895 207.352 977.062 206.744 977.062 206.098V203.989C976.948 204.102 976.728 204.209 976.401 204.308C976.082 204.401 975.716 204.482 975.304 204.553C974.892 204.617 974.491 204.678 974.1 204.734C973.71 204.784 973.383 204.827 973.12 204.862C972.502 204.94 971.938 205.072 971.426 205.256C970.922 205.441 970.517 205.707 970.212 206.055C969.913 206.396 969.764 206.851 969.764 207.419C969.764 208.207 970.055 208.804 970.638 209.209C971.22 209.607 971.962 209.805 972.864 209.805ZM997.903 195.636L991.969 212H988.56L982.615 195.636H986.035L990.179 208.229H990.349L994.483 195.636H997.903ZM1007.23 212.33C1005.7 212.33 1004.36 211.979 1003.22 211.276C1002.07 210.572 1001.18 209.589 1000.55 208.325C999.921 207.06 999.604 205.583 999.604 203.893C999.604 202.195 999.921 200.711 1000.55 199.44C1001.18 198.168 1002.07 197.181 1003.22 196.478C1004.36 195.775 1005.7 195.423 1007.23 195.423C1008.77 195.423 1010.11 195.775 1011.25 196.478C1012.39 197.181 1013.28 198.168 1013.91 199.44C1014.54 200.711 1014.86 202.195 1014.86 203.893C1014.86 205.583 1014.54 207.06 1013.91 208.325C1013.28 209.589 1012.39 210.572 1011.25 211.276C1010.11 211.979 1008.77 212.33 1007.23 212.33ZM1007.24 209.656C1008.24 209.656 1009.06 209.393 1009.71 208.868C1010.37 208.342 1010.85 207.643 1011.16 206.769C1011.48 205.896 1011.64 204.933 1011.64 203.882C1011.64 202.838 1011.48 201.879 1011.16 201.006C1010.85 200.125 1010.37 199.418 1009.71 198.886C1009.06 198.353 1008.24 198.087 1007.24 198.087C1006.24 198.087 1005.41 198.353 1004.75 198.886C1004.1 199.418 1003.61 200.125 1003.29 201.006C1002.98 201.879 1002.82 202.838 1002.82 203.882C1002.82 204.933 1002.98 205.896 1003.29 206.769C1003.61 207.643 1004.1 208.342 1004.75 208.868C1005.41 209.393 1006.24 209.656 1007.24 209.656ZM1018.42 212V195.636H1021.49V198.236H1021.67C1021.96 197.355 1022.49 196.663 1023.24 196.158C1024 195.647 1024.86 195.391 1025.82 195.391C1026.02 195.391 1026.25 195.398 1026.52 195.413C1026.8 195.427 1027.02 195.445 1027.17 195.466V198.513C1027.05 198.477 1026.82 198.438 1026.49 198.396C1026.16 198.346 1025.84 198.321 1025.51 198.321C1024.76 198.321 1024.09 198.481 1023.5 198.8C1022.92 199.113 1022.45 199.55 1022.11 200.111C1021.77 200.665 1021.6 201.297 1021.6 202.007V212H1018.42ZM1029.93 212V195.636H1033.11V212H1029.93ZM1031.54 193.112C1030.98 193.112 1030.51 192.927 1030.11 192.558C1029.72 192.181 1029.52 191.734 1029.52 191.215C1029.52 190.69 1029.72 190.242 1030.11 189.873C1030.51 189.496 1030.98 189.308 1031.54 189.308C1032.09 189.308 1032.56 189.496 1032.95 189.873C1033.35 190.242 1033.55 190.69 1033.55 191.215C1033.55 191.734 1033.35 192.181 1032.95 192.558C1032.56 192.927 1032.09 193.112 1031.54 193.112ZM1045.04 195.636V198.193H1036.1V195.636H1045.04ZM1038.5 191.716H1041.68V207.195C1041.68 207.813 1041.78 208.278 1041.96 208.591C1042.14 208.896 1042.38 209.106 1042.67 209.219C1042.97 209.326 1043.3 209.379 1043.64 209.379C1043.9 209.379 1044.12 209.362 1044.31 209.326C1044.51 209.29 1044.66 209.262 1044.76 209.241L1045.34 211.872C1045.15 211.943 1044.89 212.014 1044.55 212.085C1044.21 212.163 1043.78 212.206 1043.27 212.213C1042.43 212.227 1041.65 212.078 1040.93 211.766C1040.2 211.453 1039.62 210.97 1039.17 210.317C1038.72 209.663 1038.5 208.843 1038.5 207.856V191.716ZM1055.44 212.33C1053.83 212.33 1052.44 211.986 1051.27 211.297C1050.12 210.601 1049.22 209.624 1048.59 208.367C1047.96 207.103 1047.65 205.622 1047.65 203.925C1047.65 202.249 1047.96 200.771 1048.59 199.493C1049.22 198.214 1050.1 197.217 1051.23 196.499C1052.37 195.782 1053.7 195.423 1055.22 195.423C1056.14 195.423 1057.03 195.576 1057.9 195.881C1058.77 196.187 1059.54 196.666 1060.23 197.32C1060.92 197.973 1061.47 198.822 1061.86 199.866C1062.26 200.903 1062.46 202.163 1062.46 203.648V204.777H1049.45V202.391H1059.34C1059.34 201.553 1059.17 200.81 1058.83 200.164C1058.49 199.511 1058.01 198.996 1057.39 198.619C1056.78 198.243 1056.06 198.055 1055.24 198.055C1054.34 198.055 1053.56 198.275 1052.89 198.715C1052.23 199.148 1051.72 199.717 1051.36 200.42C1051 201.116 1050.83 201.872 1050.83 202.689V204.553C1050.83 205.647 1051.02 206.577 1051.4 207.344C1051.79 208.112 1052.34 208.697 1053.03 209.102C1053.73 209.5 1054.54 209.699 1055.47 209.699C1056.07 209.699 1056.63 209.614 1057.12 209.443C1057.62 209.266 1058.05 209.003 1058.41 208.655C1058.77 208.307 1059.05 207.877 1059.24 207.366L1062.26 207.909C1062.02 208.797 1061.58 209.575 1060.96 210.242C1060.34 210.903 1059.56 211.418 1058.62 211.787C1057.69 212.149 1056.63 212.33 1055.44 212.33ZM1078.7 212.362C1077.66 212.362 1076.72 212.17 1075.88 211.787C1075.04 211.396 1074.38 210.832 1073.89 210.093C1073.41 209.354 1073.17 208.449 1073.17 207.376C1073.17 206.453 1073.34 205.693 1073.7 205.097C1074.05 204.5 1074.53 204.028 1075.14 203.68C1075.74 203.332 1076.42 203.069 1077.16 202.891C1077.91 202.714 1078.67 202.579 1079.44 202.487C1080.42 202.373 1081.22 202.281 1081.83 202.21C1082.44 202.131 1082.88 202.007 1083.16 201.837C1083.44 201.666 1083.57 201.389 1083.57 201.006V200.931C1083.57 200.001 1083.31 199.28 1082.79 198.768C1082.27 198.257 1081.49 198.001 1080.46 198.001C1079.39 198.001 1078.55 198.239 1077.93 198.715C1077.32 199.184 1076.89 199.706 1076.66 200.281L1073.67 199.599C1074.02 198.605 1074.54 197.803 1075.22 197.192C1075.91 196.574 1076.7 196.126 1077.6 195.849C1078.49 195.565 1079.43 195.423 1080.42 195.423C1081.07 195.423 1081.77 195.501 1082.5 195.658C1083.24 195.807 1083.93 196.084 1084.57 196.489C1085.21 196.893 1085.74 197.472 1086.15 198.225C1086.56 198.971 1086.77 199.94 1086.77 201.134V212H1083.66V209.763H1083.53C1083.33 210.175 1083.02 210.58 1082.61 210.977C1082.19 211.375 1081.66 211.705 1081.02 211.968C1080.37 212.231 1079.6 212.362 1078.7 212.362ZM1079.39 209.805C1080.27 209.805 1081.02 209.631 1081.65 209.283C1082.28 208.935 1082.76 208.481 1083.08 207.92C1083.42 207.352 1083.59 206.744 1083.59 206.098V203.989C1083.47 204.102 1083.25 204.209 1082.92 204.308C1082.61 204.401 1082.24 204.482 1081.83 204.553C1081.42 204.617 1081.01 204.678 1080.62 204.734C1080.23 204.784 1079.91 204.827 1079.64 204.862C1079.03 204.94 1078.46 205.072 1077.95 205.256C1077.45 205.441 1077.04 205.707 1076.74 206.055C1076.44 206.396 1076.29 206.851 1076.29 207.419C1076.29 208.207 1076.58 208.804 1077.16 209.209C1077.74 209.607 1078.49 209.805 1079.39 209.805ZM1091.01 212V195.636H1094.2V212H1091.01ZM1092.62 193.112C1092.07 193.112 1091.59 192.927 1091.19 192.558C1090.8 192.181 1090.61 191.734 1090.61 191.215C1090.61 190.69 1090.8 190.242 1091.19 189.873C1091.59 189.496 1092.07 189.308 1092.62 189.308C1093.18 189.308 1093.65 189.496 1094.04 189.873C1094.44 190.242 1094.64 190.69 1094.64 191.215C1094.64 191.734 1094.44 192.181 1094.04 192.558C1093.65 192.927 1093.18 193.112 1092.62 193.112Z" fill="#060606"/>
<path d="M88.8333 280C74.1053 280 62.1667 268.061 62.1667 253.333V204.34C62.1667 197.817 62.1667 194.556 61.4293 191.487C60.776 188.767 59.6987 186.165 58.2373 183.779C56.588 181.088 54.2813 178.781 49.6693 174.169L35.5 160L49.6693 145.831C54.2813 141.219 56.588 138.912 58.2373 136.221C59.6987 133.835 60.776 131.234 61.4293 128.513C62.1667 125.444 62.1667 122.183 62.1667 115.66V66.6667C62.1667 51.9391 74.1053 40 88.8333 40" stroke="#060606" stroke-width="30" stroke-linecap="round" stroke-linejoin="round"/>
<path d="M239.875 280C254.603 280 266.542 268.061 266.542 253.333V204.34C266.542 197.817 266.542 194.556 267.279 191.487C267.932 188.767 269.01 186.165 270.471 183.779C272.12 181.088 274.427 178.781 279.039 174.169L293.208 160L279.039 145.831C274.427 141.219 272.12 138.912 270.471 136.221C269.01 133.835 267.932 131.234 267.279 128.513C266.542 125.444 266.542 122.183 266.542 115.66V66.6667C266.542 51.9391 254.603 40 239.875 40" stroke="#060606" stroke-width="30" stroke-linecap="round" stroke-linejoin="round"/>
<path d="M136.168 69.0132H185.204L165.707 129.155L218 119.649L143.646 268.987L165.336 165.393L110.5 176.142L136.168 69.0132Z" fill="#6366F1"/>
<path d="M390.67 109.625H375.739C375.466 107.693 374.909 105.977 374.068 104.477C373.227 102.955 372.148 101.659 370.83 100.591C369.511 99.5227 367.989 98.7045 366.261 98.1364C364.557 97.5682 362.705 97.2841 360.705 97.2841C357.091 97.2841 353.943 98.1818 351.261 99.9773C348.58 101.75 346.5 104.341 345.023 107.75C343.545 111.136 342.807 115.25 342.807 120.091C342.807 125.068 343.545 129.25 345.023 132.636C346.523 136.023 348.614 138.58 351.295 140.307C353.977 142.034 357.08 142.898 360.602 142.898C362.58 142.898 364.409 142.636 366.091 142.114C367.795 141.591 369.307 140.83 370.625 139.83C371.943 138.807 373.034 137.568 373.898 136.114C374.784 134.659 375.398 133 375.739 131.136L390.67 131.205C390.284 134.409 389.318 137.5 387.773 140.477C386.25 143.432 384.193 146.08 381.602 148.42C379.034 150.739 375.966 152.58 372.398 153.943C368.852 155.284 364.841 155.955 360.364 155.955C354.136 155.955 348.568 154.545 343.659 151.727C338.773 148.909 334.909 144.83 332.068 139.489C329.25 134.148 327.841 127.682 327.841 120.091C327.841 112.477 329.273 106 332.136 100.659C335 95.3182 338.886 91.25 343.795 88.4545C348.705 85.6364 354.227 84.2273 360.364 84.2273C364.409 84.2273 368.159 84.7955 371.614 85.9318C375.091 87.0682 378.17 88.7273 380.852 90.9091C383.534 93.0682 385.716 95.7159 387.398 98.8523C389.102 101.989 390.193 105.58 390.67 109.625ZM465.415 120.091C465.415 127.705 463.972 134.182 461.085 139.523C458.222 144.864 454.313 148.943 449.358 151.761C444.426 154.557 438.881 155.955 432.722 155.955C426.517 155.955 420.949 154.545 416.017 151.727C411.085 148.909 407.188 144.83 404.324 139.489C401.46 134.148 400.028 127.682 400.028 120.091C400.028 112.477 401.46 106 404.324 100.659C407.188 95.3182 411.085 91.25 416.017 88.4545C420.949 85.6364 426.517 84.2273 432.722 84.2273C438.881 84.2273 444.426 85.6364 449.358 88.4545C454.313 91.25 458.222 95.3182 461.085 100.659C463.972 106 465.415 112.477 465.415 120.091ZM450.449 120.091C450.449 115.159 449.71 111 448.233 107.614C446.778 104.227 444.722 101.659 442.062 99.9091C439.403 98.1591 436.29 97.2841 432.722 97.2841C429.153 97.2841 426.04 98.1591 423.381 99.9091C420.722 101.659 418.653 104.227 417.176 107.614C415.722 111 414.994 115.159 414.994 120.091C414.994 125.023 415.722 129.182 417.176 132.568C418.653 135.955 420.722 138.523 423.381 140.273C426.04 142.023 429.153 142.898 432.722 142.898C436.29 142.898 439.403 142.023 442.062 140.273C444.722 138.523 446.778 135.955 448.233 132.568C449.71 129.182 450.449 125.023 450.449 120.091ZM534.747 85.1818V155H521.997L491.622 111.057H491.111V155H476.349V85.1818H489.304L519.44 129.091H520.054V85.1818H534.747ZM544.284 97.3523V85.1818H601.625V97.3523H580.25V155H565.659V97.3523H544.284ZM611.068 155V85.1818H658.114V97.3523H625.83V113.989H655.693V126.159H625.83V142.83H658.25V155H611.068ZM683.69 85.1818L697.77 108.977H698.315L712.463 85.1818H729.134L707.827 120.091L729.611 155H712.634L698.315 131.17H697.77L683.452 155H666.543L688.395 120.091L666.952 85.1818H683.69ZM735.815 97.3523V85.1818H793.156V97.3523H771.781V155H757.19V97.3523H735.815Z" fill="#060606"/>
<path d="M807.068 155V85.1818H821.591V111.432H822.034C822.67 110.023 823.591 108.591 824.795 107.136C826.023 105.659 827.614 104.432 829.568 103.455C831.545 102.455 834 101.955 836.932 101.955C840.75 101.955 844.273 102.955 847.5 104.955C850.727 106.932 853.307 109.92 855.239 113.92C857.17 117.898 858.136 122.886 858.136 128.886C858.136 134.727 857.193 139.659 855.307 143.682C853.443 147.682 850.898 150.716 847.67 152.784C844.466 154.83 840.875 155.852 836.898 155.852C834.08 155.852 831.682 155.386 829.705 154.455C827.75 153.523 826.148 152.352 824.898 150.943C823.648 149.511 822.693 148.068 822.034 146.614H821.386V155H807.068ZM821.284 128.818C821.284 131.932 821.716 134.648 822.58 136.966C823.443 139.284 824.693 141.091 826.33 142.386C827.966 143.659 829.955 144.295 832.295 144.295C834.659 144.295 836.659 143.648 838.295 142.352C839.932 141.034 841.17 139.216 842.011 136.898C842.875 134.557 843.307 131.864 843.307 128.818C843.307 125.795 842.886 123.136 842.045 120.841C841.205 118.545 839.966 116.75 838.33 115.455C836.693 114.159 834.682 113.511 832.295 113.511C829.932 113.511 827.932 114.136 826.295 115.386C824.682 116.636 823.443 118.409 822.58 120.705C821.716 123 821.284 125.705 821.284 128.818ZM901.406 132.705V102.636H915.929V155H901.986V145.489H901.44C900.259 148.557 898.293 151.023 895.543 152.886C892.815 154.75 889.486 155.682 885.554 155.682C882.054 155.682 878.974 154.886 876.315 153.295C873.656 151.705 871.577 149.443 870.077 146.511C868.599 143.58 867.849 140.068 867.827 135.977V102.636H882.349V133.386C882.372 136.477 883.202 138.92 884.838 140.716C886.474 142.511 888.668 143.409 891.418 143.409C893.168 143.409 894.804 143.011 896.327 142.216C897.849 141.398 899.077 140.193 900.009 138.602C900.963 137.011 901.429 135.045 901.406 132.705ZM927.545 155V102.636H942.068V155H927.545ZM934.841 95.8864C932.682 95.8864 930.83 95.1705 929.284 93.7386C927.761 92.2841 927 90.5455 927 88.5227C927 86.5227 927.761 84.8068 929.284 83.375C930.83 81.9205 932.682 81.1932 934.841 81.1932C937 81.1932 938.841 81.9205 940.364 83.375C941.909 84.8068 942.682 86.5227 942.682 88.5227C942.682 90.5455 941.909 92.2841 940.364 93.7386C938.841 95.1705 937 95.8864 934.841 95.8864ZM968.224 85.1818V155H953.702V85.1818H968.224ZM999.153 155.852C995.176 155.852 991.574 154.83 988.347 152.784C985.142 150.716 982.597 147.682 980.71 143.682C978.847 139.659 977.915 134.727 977.915 128.886C977.915 122.886 978.881 117.898 980.812 113.92C982.744 109.92 985.313 106.932 988.517 104.955C991.744 102.955 995.278 101.955 999.119 101.955C1002.05 101.955 1004.49 102.455 1006.45 103.455C1008.43 104.432 1010.02 105.659 1011.22 107.136C1012.45 108.591 1013.38 110.023 1014.02 111.432H1014.46V85.1818H1028.95V155H1014.63V146.614H1014.02C1013.34 148.068 1012.37 149.511 1011.12 150.943C1009.89 152.352 1008.29 153.523 1006.31 154.455C1004.36 155.386 1001.97 155.852 999.153 155.852ZM1003.76 144.295C1006.1 144.295 1008.07 143.659 1009.69 142.386C1011.32 141.091 1012.57 139.284 1013.44 136.966C1014.32 134.648 1014.77 131.932 1014.77 128.818C1014.77 125.705 1014.34 123 1013.47 120.705C1012.61 118.409 1011.36 116.636 1009.72 115.386C1008.09 114.136 1006.1 113.511 1003.76 113.511C1001.37 113.511 999.358 114.159 997.722 115.455C996.085 116.75 994.847 118.545 994.006 120.841C993.165 123.136 992.744 125.795 992.744 128.818C992.744 131.864 993.165 134.557 994.006 136.898C994.869 139.216 996.108 141.034 997.722 142.352C999.358 143.648 1001.37 144.295 1003.76 144.295ZM1064.75 156.023C1059.37 156.023 1054.73 154.932 1050.84 152.75C1046.98 150.545 1044 147.432 1041.91 143.409C1039.82 139.364 1038.78 134.58 1038.78 129.057C1038.78 123.67 1039.82 118.943 1041.91 114.875C1044 110.807 1046.95 107.636 1050.74 105.364C1054.56 103.091 1059.04 101.955 1064.17 101.955C1067.63 101.955 1070.84 102.511 1073.82 103.625C1076.82 104.716 1079.43 106.364 1081.66 108.568C1083.91 110.773 1085.66 113.545 1086.91 116.886C1088.16 120.205 1088.79 124.091 1088.79 128.545V132.534H1044.57V123.534H1075.12C1075.12 121.443 1074.66 119.591 1073.75 117.977C1072.84 116.364 1071.58 115.102 1069.97 114.193C1068.38 113.261 1066.53 112.795 1064.41 112.795C1062.21 112.795 1060.25 113.307 1058.55 114.33C1056.87 115.33 1055.55 116.682 1054.59 118.386C1053.64 120.068 1053.15 121.943 1053.13 124.011V132.568C1053.13 135.159 1053.61 137.398 1054.56 139.284C1055.54 141.17 1056.91 142.625 1058.68 143.648C1060.46 144.67 1062.56 145.182 1064.99 145.182C1066.61 145.182 1068.08 144.955 1069.42 144.5C1070.76 144.045 1071.91 143.364 1072.87 142.455C1073.82 141.545 1074.55 140.432 1075.05 139.114L1088.48 140C1087.8 143.227 1086.4 146.045 1084.29 148.455C1082.2 150.841 1079.49 152.705 1076.17 154.045C1072.88 155.364 1069.07 156.023 1064.75 156.023ZM1098.26 155V102.636H1112.34V111.773H1112.89C1113.84 108.523 1115.45 106.068 1117.7 104.409C1119.95 102.727 1122.54 101.886 1125.47 101.886C1126.2 101.886 1126.98 101.932 1127.82 102.023C1128.66 102.114 1129.4 102.239 1130.04 102.398V115.284C1129.36 115.08 1128.41 114.898 1127.21 114.739C1126 114.58 1124.9 114.5 1123.9 114.5C1121.76 114.5 1119.86 114.966 1118.17 115.898C1116.51 116.807 1115.2 118.08 1114.22 119.716C1113.26 121.352 1112.79 123.239 1112.79 125.375V155H1098.26Z" fill="#6366F1"/>
</svg>
